<svg width="701" height="966" viewBox="0 0 701 966" fill="none" xmlns="http://www.w3.org/2000/svg">
<g clip-path="url(#clip0)">
<path d="M145.386 24.4113C153.282 25.9059 160.896 20.7123 162.391 12.8112C163.887 4.9101 158.697 -2.70658 150.801 -4.20112C142.904 -5.69566 135.291 -0.502111 133.795 7.399C132.3 15.3001 137.489 22.9168 145.386 24.4113Z" fill="#EEEEEE"/>
<path d="M138.638 60.0593C146.276 61.5048 153.64 56.4816 155.086 48.8397C156.532 41.1977 151.513 33.8309 143.876 32.3854C136.238 30.9399 128.874 35.9631 127.428 43.605C125.982 51.247 131.001 58.6138 138.638 60.0593Z" fill="#EEEEEE"/>
<path d="M131.892 95.7074C139.27 97.1039 146.385 92.2509 147.782 84.8679C149.18 77.4849 144.331 70.3676 136.952 68.9711C129.573 67.5745 122.459 72.4275 121.061 79.8106C119.664 87.1936 124.513 94.3109 131.892 95.7074Z" fill="#EEEEEE"/>
<path d="M125.145 131.355C132.264 132.703 139.129 128.02 140.477 120.896C141.826 113.773 137.147 106.905 130.027 105.558C122.907 104.21 116.043 108.893 114.694 116.017C113.346 123.14 118.025 130.008 125.145 131.355Z" fill="#EEEEEE"/>
<path d="M118.397 167.003C125.258 168.301 131.873 163.789 133.172 156.924C134.471 150.06 129.963 143.442 123.102 142.144C116.241 140.845 109.626 145.357 108.327 152.222C107.028 159.087 111.536 165.704 118.397 167.003Z" fill="#EEEEEE"/>
<path d="M111.651 202.651C118.253 203.901 124.618 199.558 125.868 192.953C127.119 186.347 122.78 179.979 116.178 178.729C109.576 177.48 103.211 181.822 101.96 188.428C100.71 195.034 105.049 201.402 111.651 202.651Z" fill="#EEEEEE"/>
<path d="M104.904 238.299C111.247 239.499 117.362 235.328 118.564 228.981C119.765 222.634 115.596 216.516 109.254 215.316C102.911 214.115 96.7948 218.287 95.5936 224.634C94.3924 230.98 98.5607 237.098 104.904 238.299Z" fill="#EEEEEE"/>
<path d="M98.1565 273.947C104.241 275.099 110.107 271.097 111.259 265.009C112.411 258.922 108.413 253.053 102.329 251.901C96.2448 250.75 90.3785 254.752 89.2263 260.839C88.0741 266.927 92.0723 272.796 98.1565 273.947Z" fill="#EEEEEE"/>
<path d="M91.4101 309.595C97.2353 310.697 102.852 306.866 103.955 301.037C105.058 295.209 101.23 289.59 95.4049 288.487C89.5797 287.385 83.9631 291.216 82.86 297.045C81.7569 302.873 85.5849 308.492 91.4101 309.595Z" fill="#EEEEEE"/>
<path d="M84.663 345.243C90.2294 346.297 95.5965 342.636 96.6507 337.066C97.7048 331.496 94.0468 326.127 88.4804 325.074C82.9139 324.02 77.5468 327.681 76.4927 333.251C75.4385 338.821 79.0965 344.19 84.663 345.243Z" fill="#EEEEEE"/>
<path d="M77.916 380.891C83.2235 381.895 88.3408 378.404 89.3459 373.094C90.351 367.783 86.8632 362.664 81.5558 361.66C76.2483 360.655 71.131 364.146 70.1259 369.456C69.1208 374.767 72.6086 379.886 77.916 380.891Z" fill="#EEEEEE"/>
<path d="M71.1689 416.539C76.2176 417.494 81.0855 414.174 82.0416 409.122C82.9977 404.071 79.68 399.201 74.6312 398.245C69.5825 397.29 64.7147 400.61 63.7586 405.662C62.8025 410.714 66.1202 415.583 71.1689 416.539Z" fill="#EEEEEE"/>
<path d="M64.422 452.187C69.2117 453.093 73.8298 449.943 74.7368 445.151C75.6439 440.358 72.4963 435.738 67.7067 434.832C62.917 433.925 58.2989 437.075 57.3919 441.868C56.4848 446.66 59.6323 451.28 64.422 452.187Z" fill="#EEEEEE"/>
<path d="M57.6751 487.835C62.2057 488.692 66.5741 485.712 67.432 481.179C68.29 476.646 65.3127 472.276 60.7821 471.418C56.2514 470.561 51.8831 473.541 51.0251 478.074C50.1671 482.607 53.1444 486.977 57.6751 487.835Z" fill="#EEEEEE"/>
<path d="M50.928 523.482C55.1999 524.291 59.3188 521.481 60.1277 517.207C60.9367 512.933 58.1295 508.812 53.8576 508.004C49.5856 507.195 45.4667 510.005 44.6578 514.279C43.8488 518.553 46.656 522.674 50.928 523.482Z" fill="#EEEEEE"/>
<path d="M44.181 559.13C48.1939 559.89 52.063 557.251 52.823 553.235C53.5829 549.22 50.9459 545.35 46.933 544.59C42.9201 543.831 39.0509 546.47 38.291 550.485C37.5311 554.5 40.1681 558.371 44.181 559.13Z" fill="#EEEEEE"/>
<path d="M37.4349 594.778C41.189 595.489 44.8087 593.02 45.5197 589.264C46.2306 585.507 43.7636 581.886 40.0094 581.176C36.2553 580.465 32.6356 582.934 31.9247 586.691C31.2137 590.447 33.6807 594.068 37.4349 594.778Z" fill="#EEEEEE"/>
<path d="M30.6879 630.426C34.1831 631.088 37.553 628.789 38.2149 625.292C38.8768 621.795 36.58 618.424 33.0848 617.762C29.5897 617.101 26.2198 619.399 25.5579 622.897C24.896 626.394 27.1928 629.765 30.6879 630.426Z" fill="#EEEEEE"/>
<path d="M23.9408 666.075C27.1772 666.687 30.2977 664.559 30.9106 661.32C31.5235 658.082 29.3967 654.96 26.1603 654.348C22.9239 653.735 19.8034 655.864 19.1906 659.102C18.5777 662.34 20.7044 665.462 23.9408 666.075Z" fill="#EEEEEE"/>
<path d="M17.1939 701.722C20.1713 702.286 23.042 700.328 23.6058 697.349C24.1696 694.37 22.2131 691.498 19.2357 690.934C16.2584 690.371 13.3877 692.329 12.8238 695.308C12.26 698.287 14.2166 701.159 17.1939 701.722Z" fill="#EEEEEE"/>
<path d="M180.955 31.1237C188.851 32.6183 196.465 27.4247 197.961 19.5236C199.456 11.6225 194.267 4.00583 186.37 2.51128C178.474 1.01674 170.86 6.21029 169.365 14.1114C167.869 22.0125 173.058 29.6292 180.955 31.1237Z" fill="#EEEEEE"/>
<path d="M174.207 66.7717C181.845 68.2172 189.209 63.194 190.655 55.5521C192.102 47.9101 187.083 40.5433 179.445 39.0978C171.808 37.6523 164.444 42.6755 162.997 50.3174C161.551 57.9593 166.57 65.3262 174.207 66.7717Z" fill="#EEEEEE"/>
<path d="M167.461 102.42C174.84 103.816 181.954 98.9634 183.352 91.5803C184.749 84.1973 179.9 77.08 172.521 75.6835C165.142 74.2869 158.028 79.1399 156.631 86.523C155.233 93.906 160.082 101.023 167.461 102.42Z" fill="#EEEEEE"/>
<path d="M160.714 138.068C167.834 139.415 174.698 134.733 176.047 127.609C177.395 120.485 172.716 113.618 165.597 112.27C158.477 110.922 151.612 115.605 150.264 122.729C148.915 129.853 153.594 136.72 160.714 138.068Z" fill="#EEEEEE"/>
<path d="M153.967 173.715C160.828 175.014 167.443 170.501 168.742 163.637C170.041 156.772 165.533 150.155 158.672 148.856C151.811 147.558 145.196 152.07 143.897 158.935C142.598 165.799 147.106 172.417 153.967 173.715Z" fill="#EEEEEE"/>
<path d="M147.22 209.364C153.822 210.613 160.187 206.271 161.438 199.665C162.688 193.06 158.349 186.692 151.747 185.442C145.145 184.193 138.78 188.535 137.53 195.141C136.279 201.746 140.618 208.114 147.22 209.364Z" fill="#EEEEEE"/>
<path d="M140.473 245.011C146.816 246.212 152.932 242.04 154.133 235.693C155.334 229.347 151.166 223.229 144.823 222.028C138.48 220.828 132.364 224.999 131.163 231.346C129.962 237.693 134.13 243.811 140.473 245.011Z" fill="#EEEEEE"/>
<path d="M133.726 280.659C139.81 281.811 145.676 277.809 146.829 271.722C147.981 265.634 143.983 259.765 137.898 258.614C131.814 257.462 125.948 261.464 124.796 267.552C123.643 273.639 127.642 279.508 133.726 280.659Z" fill="#EEEEEE"/>
<path d="M126.979 316.307C132.805 317.41 138.421 313.578 139.524 307.75C140.627 301.921 136.799 296.302 130.974 295.2C125.149 294.097 119.532 297.929 118.429 303.757C117.326 309.586 121.154 315.204 126.979 316.307Z" fill="#EEEEEE"/>
<path d="M120.232 351.956C125.799 353.009 131.166 349.348 132.22 343.778C133.274 338.209 129.616 332.84 124.05 331.786C118.483 330.732 113.116 334.394 112.062 339.963C111.008 345.533 114.666 350.902 120.232 351.956Z" fill="#EEEEEE"/>
<path d="M113.485 387.603C118.793 388.608 123.91 385.117 124.915 379.806C125.92 374.496 122.433 369.377 117.125 368.372C111.818 367.368 106.7 370.858 105.695 376.169C104.69 381.479 108.178 386.599 113.485 387.603Z" fill="#EEEEEE"/>
<path d="M106.738 423.252C111.787 424.207 116.655 420.887 117.611 415.835C118.567 410.784 115.249 405.914 110.201 404.958C105.152 404.003 100.284 407.323 99.3279 412.375C98.3718 417.426 101.69 422.296 106.738 423.252Z" fill="#EEEEEE"/>
<path d="M99.9913 458.899C104.781 459.805 109.399 456.655 110.306 451.863C111.213 447.07 108.066 442.45 103.276 441.544C98.4863 440.637 93.8682 443.787 92.9612 448.58C92.0541 453.372 95.2016 457.992 99.9913 458.899Z" fill="#EEEEEE"/>
<path d="M93.2444 494.547C97.775 495.405 102.143 492.425 103.001 487.892C103.859 483.358 100.882 478.988 96.3514 478.131C91.8208 477.273 87.4524 480.253 86.5944 484.786C85.7364 489.32 88.7137 493.69 93.2444 494.547Z" fill="#EEEEEE"/>
<path d="M86.4973 530.195C90.7692 531.003 94.8881 528.194 95.6971 523.919C96.5061 519.645 93.6988 515.524 89.4269 514.716C85.155 513.907 81.0361 516.717 80.2271 520.991C79.4181 525.266 82.2254 529.386 86.4973 530.195Z" fill="#EEEEEE"/>
<path d="M79.7503 565.843C83.7632 566.602 87.6324 563.963 88.3923 559.948C89.1522 555.933 86.5152 552.062 82.5023 551.302C78.4894 550.543 74.6203 553.182 73.8603 557.197C73.1004 561.213 75.7374 565.083 79.7503 565.843Z" fill="#EEEEEE"/>
<path d="M73.0042 601.491C76.7584 602.201 80.378 599.732 81.089 595.976C81.7999 592.22 79.3329 588.599 75.5788 587.888C71.8246 587.178 68.2049 589.647 67.494 593.403C66.783 597.159 69.25 600.78 73.0042 601.491Z" fill="#EEEEEE"/>
<path d="M66.2573 637.139C69.7524 637.8 73.1223 635.502 73.7842 632.004C74.4461 628.507 72.1493 625.136 68.6542 624.475C65.159 623.813 61.7891 626.112 61.1272 629.609C60.4654 633.106 62.7622 636.477 66.2573 637.139Z" fill="#EEEEEE"/>
<path d="M59.5102 672.787C62.7466 673.399 65.867 671.271 66.4799 668.033C67.0928 664.794 64.966 661.673 61.7296 661.06C58.4932 660.448 55.3728 662.576 54.7599 665.815C54.147 669.053 56.2738 672.174 59.5102 672.787Z" fill="#EEEEEE"/>
<path d="M52.7633 708.435C55.7406 708.998 58.6113 707.04 59.1751 704.061C59.739 701.082 57.7824 698.21 54.805 697.647C51.8277 697.083 48.957 699.041 48.3932 702.02C47.8293 705 49.7859 707.871 52.7633 708.435Z" fill="#EEEEEE"/>
<path d="M223.27 2.18895C231.426 3.73246 239.289 -1.63126 240.833 -9.79125C242.378 -17.9512 237.018 -25.8175 228.863 -27.361C220.708 -28.9045 212.845 -23.5408 211.3 -15.3808C209.756 -7.2208 215.115 0.645438 223.27 2.18895Z" fill="#EEEEEE"/>
<path d="M216.524 37.8367C224.421 39.3312 232.035 34.1376 233.53 26.2365C235.025 18.3354 229.836 10.7187 221.94 9.22417C214.043 7.72963 206.429 12.9232 204.934 20.8243C203.439 28.7254 208.628 36.3421 216.524 37.8367Z" fill="#EEEEEE"/>
<path d="M209.777 73.4846C217.414 74.9301 224.778 69.9069 226.225 62.265C227.671 54.623 222.652 47.2562 215.015 45.8107C207.377 44.3652 200.013 49.3884 198.567 57.0303C197.12 64.6722 202.139 72.0391 209.777 73.4846Z" fill="#EEEEEE"/>
<path d="M203.03 109.133C210.409 110.529 217.523 105.676 218.921 98.2932C220.318 90.9102 215.469 83.7929 208.09 82.3963C200.712 80.9998 193.597 85.8528 192.2 93.2359C190.802 100.619 195.651 107.736 203.03 109.133Z" fill="#EEEEEE"/>
<path d="M196.283 144.781C203.403 146.128 210.268 141.446 211.616 134.322C212.964 127.198 208.286 120.33 201.166 118.983C194.046 117.635 187.181 122.318 185.833 129.442C184.485 136.566 189.163 143.433 196.283 144.781Z" fill="#EEEEEE"/>
<path d="M189.536 180.428C196.397 181.727 203.012 177.214 204.311 170.35C205.61 163.485 201.102 156.867 194.241 155.569C187.38 154.27 180.765 158.783 179.466 165.647C178.167 172.512 182.675 179.13 189.536 180.428Z" fill="#EEEEEE"/>
<path d="M182.789 216.077C189.391 217.326 195.757 212.984 197.007 206.378C198.257 199.773 193.919 193.405 187.317 192.155C180.715 190.906 174.349 195.248 173.099 201.853C171.849 208.459 176.187 214.827 182.789 216.077Z" fill="#EEEEEE"/>
<path d="M176.042 251.724C182.385 252.925 188.501 248.753 189.702 242.406C190.903 236.06 186.735 229.942 180.392 228.741C174.049 227.541 167.933 231.712 166.732 238.059C165.531 244.406 169.699 250.524 176.042 251.724Z" fill="#EEEEEE"/>
<path d="M169.295 287.372C175.379 288.524 181.246 284.522 182.398 278.435C183.55 272.347 179.552 266.478 173.468 265.327C167.383 264.175 161.517 268.177 160.365 274.265C159.213 280.352 163.211 286.221 169.295 287.372Z" fill="#EEEEEE"/>
<path d="M162.549 323.02C168.374 324.122 173.99 320.291 175.094 314.463C176.197 308.634 172.369 303.015 166.544 301.913C160.718 300.81 155.102 304.641 153.999 310.47C152.896 316.299 156.724 321.917 162.549 323.02Z" fill="#EEEEEE"/>
<path d="M155.802 358.669C161.368 359.722 166.735 356.061 167.789 350.491C168.843 344.922 165.185 339.552 159.619 338.499C154.053 337.445 148.685 341.106 147.631 346.676C146.577 352.246 150.235 357.615 155.802 358.669Z" fill="#EEEEEE"/>
<path d="M149.055 394.316C154.362 395.32 159.479 391.83 160.485 386.519C161.49 381.209 158.002 376.089 152.694 375.085C147.387 374.08 142.27 377.571 141.265 382.882C140.26 388.192 143.747 393.311 149.055 394.316Z" fill="#EEEEEE"/>
<path d="M142.308 429.965C147.356 430.92 152.224 427.6 153.18 422.548C154.136 417.496 150.819 412.627 145.77 411.671C140.721 410.716 135.853 414.036 134.897 419.088C133.941 424.139 137.259 429.009 142.308 429.965Z" fill="#EEEEEE"/>
<path d="M135.561 465.612C140.35 466.518 144.968 463.368 145.875 458.576C146.783 453.783 143.635 449.164 138.845 448.257C134.056 447.351 129.438 450.501 128.531 455.293C127.623 460.085 130.771 464.705 135.561 465.612Z" fill="#EEEEEE"/>
<path d="M128.814 501.26C133.344 502.117 137.713 499.138 138.571 494.604C139.429 490.071 136.451 485.701 131.921 484.844C127.39 483.986 123.022 486.966 122.164 491.499C121.306 496.032 124.283 500.402 128.814 501.26Z" fill="#EEEEEE"/>
<path d="M122.067 536.908C126.339 537.716 130.457 534.907 131.266 530.632C132.075 526.358 129.268 522.237 124.996 521.429C120.724 520.62 116.605 523.43 115.796 527.704C114.987 531.979 117.795 536.099 122.067 536.908Z" fill="#EEEEEE"/>
<path d="M115.32 572.556C119.333 573.315 123.202 570.676 123.962 566.661C124.722 562.645 122.085 558.775 118.072 558.015C114.059 557.256 110.19 559.895 109.43 563.91C108.67 567.925 111.307 571.796 115.32 572.556Z" fill="#EEEEEE"/>
<path d="M108.574 608.204C112.328 608.914 115.947 606.445 116.658 602.689C117.369 598.933 114.902 595.312 111.148 594.601C107.394 593.89 103.774 596.36 103.063 600.116C102.352 603.872 104.819 607.493 108.574 608.204Z" fill="#EEEEEE"/>
<path d="M101.827 643.852C105.322 644.513 108.692 642.215 109.354 638.717C110.015 635.22 107.719 631.849 104.224 631.188C100.728 630.526 97.3585 632.825 96.6966 636.322C96.0347 639.819 98.3315 643.19 101.827 643.852Z" fill="#EEEEEE"/>
<path d="M95.0795 679.5C98.3158 680.113 101.436 677.984 102.049 674.746C102.662 671.507 100.535 668.386 97.299 667.773C94.0626 667.161 90.9421 669.289 90.3292 672.528C89.7163 675.766 91.8431 678.888 95.0795 679.5Z" fill="#EEEEEE"/>
<path d="M88.3326 715.148C91.3099 715.711 94.1806 713.753 94.7445 710.774C95.3083 707.795 93.3517 704.923 90.3744 704.36C87.397 703.796 84.5263 705.754 83.9625 708.733C83.3987 711.712 85.3552 714.584 88.3326 715.148Z" fill="#EEEEEE"/>
<path d="M258.84 8.90133C266.995 10.4448 274.858 5.08113 276.403 -3.07885C277.947 -11.2388 272.588 -19.1051 264.432 -20.6486C256.277 -22.1921 248.414 -16.8284 246.87 -8.6684C245.325 -0.50842 250.684 7.35781 258.84 8.90133Z" fill="#EEEEEE"/>
<path d="M252.094 44.549C259.99 46.0436 267.604 40.85 269.099 32.9489C270.595 25.0478 265.405 17.4311 257.509 15.9366C249.612 14.442 241.999 19.6356 240.503 27.5367C239.008 35.4378 244.197 43.0545 252.094 44.549Z" fill="#EEEEEE"/>
<path d="M245.346 80.197C252.984 81.6425 260.348 76.6193 261.794 68.9774C263.24 61.3354 258.221 53.9686 250.584 52.5231C242.946 51.0776 235.582 56.1008 234.136 63.7427C232.69 71.3847 237.709 78.7515 245.346 80.197Z" fill="#EEEEEE"/>
<path d="M238.6 115.845C245.978 117.242 253.093 112.389 254.49 105.006C255.888 97.6226 251.039 90.5053 243.66 89.1087C236.281 87.7122 229.167 92.5652 227.769 99.9483C226.372 107.331 231.221 114.449 238.6 115.845Z" fill="#EEEEEE"/>
<path d="M231.853 151.493C238.972 152.841 245.837 148.158 247.185 141.034C248.534 133.91 243.855 127.043 236.735 125.695C229.615 124.348 222.751 129.03 221.402 136.154C220.054 143.278 224.733 150.146 231.853 151.493Z" fill="#EEEEEE"/>
<path d="M225.106 187.141C231.966 188.439 238.581 183.927 239.881 177.062C241.18 170.197 236.671 163.58 229.811 162.281C222.95 160.983 216.335 165.495 215.036 172.36C213.736 179.224 218.245 185.842 225.106 187.141Z" fill="#EEEEEE"/>
<path d="M218.359 222.789C224.961 224.039 231.326 219.697 232.576 213.091C233.827 206.485 229.488 200.117 222.886 198.867C216.284 197.618 209.919 201.96 208.668 208.566C207.418 215.172 211.757 221.54 218.359 222.789Z" fill="#EEEEEE"/>
<path d="M211.612 258.437C217.955 259.637 224.07 255.465 225.272 249.119C226.473 242.772 222.304 236.654 215.962 235.453C209.619 234.253 203.503 238.425 202.302 244.771C201.1 251.118 205.269 257.236 211.612 258.437Z" fill="#EEEEEE"/>
<path d="M204.865 294.085C210.949 295.236 216.815 291.235 217.967 285.147C219.119 279.059 215.121 273.191 209.037 272.039C202.953 270.888 197.086 274.889 195.934 280.977C194.782 287.065 198.78 292.933 204.865 294.085Z" fill="#EEEEEE"/>
<path d="M198.118 329.732C203.943 330.835 209.56 327.004 210.663 321.175C211.766 315.346 207.938 309.728 202.113 308.625C196.288 307.523 190.671 311.354 189.568 317.182C188.465 323.011 192.293 328.63 198.118 329.732Z" fill="#EEEEEE"/>
<path d="M191.371 365.381C196.937 366.435 202.304 362.773 203.359 357.204C204.413 351.634 200.755 346.265 195.188 345.211C189.622 344.158 184.255 347.819 183.201 353.389C182.147 358.958 185.804 364.327 191.371 365.381Z" fill="#EEEEEE"/>
<path d="M184.624 401.028C189.931 402.033 195.049 398.542 196.054 393.232C197.059 387.921 193.571 382.802 188.264 381.797C182.956 380.793 177.839 384.284 176.834 389.594C175.829 394.905 179.317 400.024 184.624 401.028Z" fill="#EEEEEE"/>
<path d="M177.877 436.677C182.926 437.632 187.794 434.312 188.75 429.26C189.706 424.209 186.388 419.339 181.339 418.383C176.291 417.428 171.423 420.748 170.467 425.8C169.511 430.852 172.828 435.721 177.877 436.677Z" fill="#EEEEEE"/>
<path d="M171.13 472.324C175.92 473.231 180.538 470.081 181.445 465.288C182.352 460.496 179.204 455.876 174.415 454.97C169.625 454.063 165.007 457.213 164.1 462.006C163.193 466.798 166.34 471.418 171.13 472.324Z" fill="#EEEEEE"/>
<path d="M164.383 507.972C168.914 508.829 173.282 505.85 174.14 501.316C174.998 496.783 172.021 492.413 167.491 491.556C162.96 490.698 158.592 493.678 157.734 498.211C156.876 502.744 159.853 507.115 164.383 507.972Z" fill="#EEEEEE"/>
<path d="M157.636 543.62C161.908 544.429 166.027 541.619 166.836 537.345C167.645 533.07 164.837 528.95 160.566 528.141C156.294 527.333 152.175 530.142 151.366 534.417C150.557 538.691 153.364 542.812 157.636 543.62Z" fill="#EEEEEE"/>
<path d="M150.889 579.268C154.902 580.028 158.771 577.388 159.531 573.373C160.291 569.358 157.654 565.487 153.641 564.728C149.628 563.968 145.759 566.607 144.999 570.623C144.239 574.638 146.876 578.509 150.889 579.268Z" fill="#EEEEEE"/>
<path d="M144.143 614.916C147.897 615.627 151.517 613.158 152.228 609.401C152.939 605.645 150.472 602.024 146.717 601.313C142.963 600.603 139.344 603.072 138.633 606.828C137.922 610.585 140.389 614.206 144.143 614.916Z" fill="#EEEEEE"/>
<path d="M137.396 650.564C140.891 651.226 144.261 648.927 144.923 645.43C145.585 641.933 143.288 638.561 139.793 637.9C136.298 637.238 132.928 639.537 132.266 643.034C131.604 646.531 133.901 649.903 137.396 650.564Z" fill="#EEEEEE"/>
<path d="M130.649 686.212C133.885 686.825 137.006 684.696 137.619 681.458C138.231 678.22 136.105 675.098 132.868 674.486C129.632 673.873 126.511 676.002 125.899 679.24C125.286 682.478 127.412 685.6 130.649 686.212Z" fill="#EEEEEE"/>
<path d="M123.902 721.86C126.879 722.424 129.75 720.466 130.314 717.487C130.878 714.507 128.921 711.636 125.944 711.072C122.966 710.509 120.096 712.467 119.532 715.446C118.968 718.425 120.925 721.297 123.902 721.86Z" fill="#EEEEEE"/>
<path d="M294.409 15.6142C302.564 17.1578 310.427 11.794 311.972 3.63405C313.516 -4.52595 308.157 -12.3922 300.002 -13.9357C291.847 -15.4792 283.983 -10.1155 282.439 -1.9555C280.895 6.20449 286.254 14.0707 294.409 15.6142Z" fill="#EEEEEE"/>
<path d="M287.663 51.2619C295.559 52.7565 303.173 47.5629 304.669 39.6618C306.164 31.7607 300.975 24.144 293.078 22.6495C285.182 21.1549 277.568 26.3485 276.073 34.2496C274.577 42.1507 279.766 49.7674 287.663 51.2619Z" fill="#EEEEEE"/>
<path d="M280.915 86.9099C288.553 88.3554 295.917 83.3322 297.363 75.6903C298.81 68.0483 293.791 60.6815 286.153 59.236C278.516 57.7905 271.152 62.8137 269.705 70.4556C268.259 78.0975 273.278 85.4644 280.915 86.9099Z" fill="#EEEEEE"/>
<path d="M274.169 122.558C281.548 123.955 288.662 119.102 290.06 111.719C291.457 104.335 286.608 97.2182 279.229 95.8216C271.85 94.4251 264.736 99.2781 263.339 106.661C261.941 114.044 266.79 121.161 274.169 122.558Z" fill="#EEEEEE"/>
<path d="M267.422 158.206C274.542 159.553 281.406 154.871 282.755 147.747C284.103 140.623 279.424 133.756 272.305 132.408C265.185 131.061 258.32 135.743 256.972 142.867C255.623 149.991 260.302 156.858 267.422 158.206Z" fill="#EEEEEE"/>
<path d="M260.675 193.853C267.535 195.152 274.15 190.64 275.449 183.775C276.749 176.91 272.24 170.293 265.379 168.994C258.519 167.696 251.904 172.208 250.605 179.073C249.305 185.937 253.814 192.555 260.675 193.853Z" fill="#EEEEEE"/>
<path d="M253.928 229.502C260.53 230.752 266.895 226.41 268.146 219.804C269.396 213.198 265.057 206.83 258.455 205.58C251.853 204.331 245.488 208.673 244.238 215.279C242.987 221.885 247.326 228.253 253.928 229.502Z" fill="#EEEEEE"/>
<path d="M247.181 265.149C253.524 266.35 259.64 262.178 260.841 255.832C262.042 249.485 257.874 243.367 251.531 242.166C245.188 240.966 239.072 245.138 237.871 251.484C236.67 257.831 240.838 263.949 247.181 265.149Z" fill="#EEEEEE"/>
<path d="M240.434 300.798C246.518 301.949 252.384 297.948 253.537 291.86C254.689 285.772 250.691 279.904 244.606 278.752C238.522 277.6 232.656 281.602 231.504 287.69C230.351 293.778 234.35 299.646 240.434 300.798Z" fill="#EEEEEE"/>
<path d="M233.687 336.445C239.513 337.548 245.129 333.716 246.232 327.888C247.335 322.059 243.507 316.441 237.682 315.338C231.857 314.236 226.24 318.067 225.137 323.895C224.034 329.724 227.862 335.343 233.687 336.445Z" fill="#EEEEEE"/>
<path d="M226.94 372.094C232.507 373.147 237.874 369.486 238.928 363.917C239.982 358.347 236.324 352.978 230.758 351.924C225.191 350.871 219.824 354.532 218.77 360.101C217.716 365.671 221.374 371.04 226.94 372.094Z" fill="#EEEEEE"/>
<path d="M220.193 407.741C225.501 408.746 230.618 405.255 231.623 399.945C232.628 394.634 229.141 389.515 223.833 388.51C218.526 387.506 213.408 390.996 212.403 396.307C211.398 401.617 214.886 406.737 220.193 407.741Z" fill="#EEEEEE"/>
<path d="M213.446 443.39C218.495 444.345 223.363 441.025 224.319 435.973C225.275 430.922 221.957 426.052 216.909 425.096C211.86 424.141 206.992 427.461 206.036 432.513C205.08 437.565 208.398 442.434 213.446 443.39Z" fill="#EEEEEE"/>
<path d="M206.699 479.037C211.489 479.943 216.107 476.793 217.014 472.001C217.921 467.208 214.774 462.588 209.984 461.682C205.194 460.775 200.576 463.926 199.669 468.718C198.762 473.51 201.91 478.13 206.699 479.037Z" fill="#EEEEEE"/>
<path d="M199.952 514.685C204.483 515.542 208.851 512.563 209.709 508.029C210.567 503.496 207.59 499.126 203.059 498.268C198.529 497.411 194.16 500.391 193.302 504.924C192.444 509.457 195.422 513.827 199.952 514.685Z" fill="#EEEEEE"/>
<path d="M193.205 550.333C197.477 551.141 201.596 548.332 202.405 544.058C203.214 539.783 200.407 535.663 196.135 534.854C191.863 534.046 187.744 536.855 186.935 541.13C186.126 545.404 188.933 549.524 193.205 550.333Z" fill="#EEEEEE"/>
<path d="M186.458 585.981C190.471 586.74 194.34 584.101 195.1 580.086C195.86 576.071 193.223 572.2 189.21 571.441C185.197 570.681 181.328 573.32 180.568 577.336C179.808 581.351 182.445 585.221 186.458 585.981Z" fill="#EEEEEE"/>
<path d="M179.712 621.629C183.466 622.339 187.086 619.87 187.797 616.114C188.508 612.358 186.041 608.737 182.287 608.026C178.533 607.316 174.913 609.785 174.202 613.541C173.491 617.297 175.958 620.918 179.712 621.629Z" fill="#EEEEEE"/>
<path d="M172.965 657.277C176.46 657.939 179.83 655.64 180.492 652.143C181.154 648.646 178.857 645.274 175.362 644.613C171.867 643.951 168.497 646.25 167.835 649.747C167.173 653.244 169.47 656.616 172.965 657.277Z" fill="#EEEEEE"/>
<path d="M166.218 692.925C169.455 693.538 172.575 691.409 173.188 688.171C173.801 684.933 171.674 681.811 168.438 681.198C165.201 680.586 162.081 682.714 161.468 685.953C160.855 689.191 162.982 692.313 166.218 692.925Z" fill="#EEEEEE"/>
<path d="M159.471 728.573C162.449 729.137 165.319 727.178 165.883 724.199C166.447 721.22 164.49 718.348 161.513 717.785C158.536 717.221 155.665 719.18 155.101 722.159C154.537 725.138 156.494 728.01 159.471 728.573Z" fill="#EEEEEE"/>
<path d="M329.978 22.3266C338.133 23.8702 345.996 18.5064 347.541 10.3465C349.085 2.18646 343.726 -5.67978 335.571 -7.22329C327.415 -8.7668 319.552 -3.40309 318.008 4.7569C316.463 12.9169 321.823 20.7831 329.978 22.3266Z" fill="#EEEEEE"/>
<path d="M323.232 57.9743C331.128 59.4688 338.742 54.2753 340.237 46.3742C341.733 38.4731 336.544 30.8564 328.647 29.3619C320.751 27.8673 313.137 33.0609 311.641 40.962C310.146 48.8631 315.335 56.4798 323.232 57.9743Z" fill="#EEEEEE"/>
<path d="M316.484 93.6223C324.122 95.0678 331.486 90.0446 332.932 82.4027C334.378 74.7607 329.36 67.3939 321.722 65.9484C314.084 64.5029 306.721 69.5261 305.274 77.168C303.828 84.8099 308.847 92.1768 316.484 93.6223Z" fill="#EEEEEE"/>
<path d="M309.738 129.27C317.117 130.667 324.231 125.814 325.628 118.431C327.026 111.048 322.177 103.931 314.798 102.534C307.419 101.137 300.305 105.991 298.907 113.374C297.51 120.757 302.359 127.874 309.738 129.27Z" fill="#EEEEEE"/>
<path d="M302.991 164.918C310.111 166.266 316.975 161.583 318.324 154.459C319.672 147.336 314.993 140.468 307.873 139.121C300.754 137.773 293.889 142.456 292.541 149.58C291.192 156.703 295.871 163.571 302.991 164.918Z" fill="#EEEEEE"/>
<path d="M296.243 200.566C303.104 201.864 309.719 197.352 311.018 190.487C312.318 183.623 307.809 177.005 300.948 175.707C294.088 174.408 287.473 178.92 286.173 185.785C284.874 192.65 289.383 199.267 296.243 200.566Z" fill="#EEEEEE"/>
<path d="M289.497 236.215C296.099 237.464 302.464 233.122 303.714 226.516C304.965 219.91 300.626 213.542 294.024 212.293C287.422 211.043 281.057 215.385 279.807 221.991C278.556 228.597 282.895 234.965 289.497 236.215Z" fill="#EEEEEE"/>
<path d="M282.75 271.862C289.093 273.062 295.209 268.891 296.41 262.544C297.611 256.197 293.443 250.079 287.1 248.879C280.757 247.678 274.641 251.85 273.44 258.197C272.239 264.543 276.407 270.661 282.75 271.862Z" fill="#EEEEEE"/>
<path d="M276.003 307.51C282.087 308.662 287.953 304.66 289.105 298.572C290.258 292.485 286.259 286.616 280.175 285.464C274.091 284.313 268.225 288.314 267.072 294.402C265.92 300.49 269.918 306.359 276.003 307.51Z" fill="#EEEEEE"/>
<path d="M269.256 343.158C275.081 344.26 280.698 340.429 281.801 334.6C282.904 328.772 279.076 323.153 273.251 322.05C267.426 320.948 261.809 324.779 260.706 330.608C259.603 336.436 263.431 342.055 269.256 343.158Z" fill="#EEEEEE"/>
<path d="M262.509 378.806C268.076 379.86 273.443 376.199 274.497 370.629C275.551 365.059 271.893 359.69 266.327 358.637C260.76 357.583 255.393 361.244 254.339 366.814C253.285 372.384 256.943 377.753 262.509 378.806Z" fill="#EEEEEE"/>
<path d="M255.762 414.454C261.07 415.458 266.187 411.967 267.192 406.657C268.197 401.346 264.709 396.227 259.402 395.223C254.095 394.218 248.977 397.709 247.972 403.019C246.967 408.33 250.455 413.449 255.762 414.454Z" fill="#EEEEEE"/>
<path d="M249.015 450.102C254.064 451.057 258.932 447.737 259.888 442.685C260.844 437.634 257.526 432.764 252.477 431.808C247.429 430.853 242.561 434.173 241.605 439.225C240.649 444.277 243.966 449.146 249.015 450.102Z" fill="#EEEEEE"/>
<path d="M242.268 485.75C247.058 486.656 251.676 483.506 252.583 478.714C253.49 473.921 250.343 469.301 245.553 468.395C240.763 467.488 236.145 470.638 235.238 475.431C234.331 480.223 237.479 484.843 242.268 485.75Z" fill="#EEEEEE"/>
<path d="M235.521 521.398C240.052 522.255 244.42 519.275 245.278 514.742C246.136 510.209 243.159 505.839 238.628 504.981C234.098 504.124 229.729 507.104 228.871 511.637C228.013 516.17 230.991 520.54 235.521 521.398Z" fill="#EEEEEE"/>
<path d="M228.774 557.045C233.046 557.854 237.165 555.044 237.974 550.77C238.783 546.496 235.976 542.375 231.704 541.567C227.432 540.758 223.313 543.568 222.504 547.842C221.695 552.116 224.502 556.237 228.774 557.045Z" fill="#EEEEEE"/>
<path d="M222.027 592.693C226.04 593.453 229.909 590.814 230.669 586.798C231.429 582.783 228.792 578.913 224.779 578.153C220.766 577.394 216.897 580.033 216.137 584.048C215.377 588.063 218.014 591.934 222.027 592.693Z" fill="#EEEEEE"/>
<path d="M215.281 628.342C219.035 629.052 222.655 626.583 223.366 622.827C224.077 619.07 221.61 615.449 217.856 614.739C214.101 614.028 210.482 616.497 209.771 620.254C209.06 624.01 211.527 627.631 215.281 628.342Z" fill="#EEEEEE"/>
<path d="M208.534 663.99C212.029 664.651 215.399 662.352 216.061 658.855C216.723 655.358 214.426 651.987 210.931 651.325C207.436 650.664 204.066 652.962 203.404 656.46C202.742 659.957 205.039 663.328 208.534 663.99Z" fill="#EEEEEE"/>
<path d="M201.787 699.638C205.023 700.25 208.144 698.122 208.757 694.883C209.37 691.645 207.243 688.523 204.006 687.911C200.77 687.298 197.65 689.427 197.037 692.665C196.424 695.903 198.551 699.025 201.787 699.638Z" fill="#EEEEEE"/>
<path d="M195.04 735.286C198.017 735.849 200.888 733.891 201.452 730.912C202.016 727.933 200.059 725.061 197.082 724.497C194.105 723.934 191.234 725.892 190.67 728.871C190.106 731.85 192.063 734.722 195.04 735.286Z" fill="#EEEEEE"/>
<path d="M365.547 29.0395C373.703 30.583 381.566 25.2193 383.11 17.0593C384.654 8.89934 379.295 1.0331 371.14 -0.510406C362.985 -2.05392 355.122 3.3098 353.577 11.4698C352.033 19.6298 357.392 27.496 365.547 29.0395Z" fill="#EEEEEE"/>
<path d="M358.801 64.6872C366.698 66.1818 374.311 60.9882 375.807 53.0871C377.302 45.186 372.113 37.5693 364.216 36.0748C356.32 34.5802 348.706 39.7738 347.211 47.6749C345.715 55.576 350.905 63.1927 358.801 64.6872Z" fill="#EEEEEE"/>
<path d="M352.054 100.335C359.691 101.781 367.055 96.7575 368.501 89.1156C369.948 81.4736 364.929 74.1068 357.291 72.6613C349.654 71.2158 342.29 76.239 340.844 83.8809C339.397 91.5228 344.416 98.8897 352.054 100.335Z" fill="#EEEEEE"/>
<path d="M345.307 135.983C352.686 137.38 359.8 132.527 361.198 125.144C362.595 117.761 357.746 110.643 350.367 109.247C342.989 107.85 335.874 112.703 334.477 120.086C333.079 127.47 337.928 134.587 345.307 135.983Z" fill="#EEEEEE"/>
<path d="M338.56 171.631C345.68 172.979 352.545 168.296 353.893 161.172C355.241 154.048 350.563 147.181 343.443 145.833C336.323 144.486 329.458 149.169 328.11 156.292C326.762 163.416 331.44 170.284 338.56 171.631Z" fill="#EEEEEE"/>
<path d="M331.813 207.279C338.673 208.577 345.288 204.065 346.588 197.2C347.887 190.336 343.378 183.718 336.518 182.419C329.657 181.121 323.042 185.633 321.743 192.498C320.443 199.363 324.952 205.98 331.813 207.279Z" fill="#EEEEEE"/>
<path d="M325.066 242.927C331.668 244.177 338.034 239.835 339.284 233.229C340.534 226.623 336.196 220.255 329.594 219.006C322.992 217.756 316.626 222.098 315.376 228.704C314.126 235.31 318.464 241.678 325.066 242.927Z" fill="#EEEEEE"/>
<path d="M318.319 278.575C324.662 279.775 330.778 275.604 331.979 269.257C333.18 262.91 329.012 256.792 322.669 255.592C316.326 254.391 310.21 258.563 309.009 264.91C307.808 271.256 311.976 277.374 318.319 278.575Z" fill="#EEEEEE"/>
<path d="M311.572 314.223C317.656 315.375 323.523 311.373 324.675 305.285C325.827 299.197 321.829 293.329 315.745 292.177C309.66 291.026 303.794 295.027 302.642 301.115C301.49 307.203 305.488 313.071 311.572 314.223Z" fill="#EEEEEE"/>
<path d="M304.826 349.87C310.651 350.973 316.267 347.142 317.37 341.313C318.474 335.485 314.646 329.866 308.82 328.763C302.995 327.661 297.379 331.492 296.276 337.321C295.172 343.149 299 348.768 304.826 349.87Z" fill="#EEEEEE"/>
<path d="M298.078 385.519C303.645 386.573 309.012 382.912 310.066 377.342C311.12 371.772 307.462 366.403 301.896 365.349C296.329 364.296 290.962 367.957 289.908 373.527C288.854 379.096 292.512 384.466 298.078 385.519Z" fill="#EEEEEE"/>
<path d="M291.332 421.167C296.639 422.171 301.756 418.68 302.761 413.37C303.766 408.059 300.279 402.94 294.971 401.936C289.664 400.931 284.547 404.422 283.541 409.732C282.536 415.043 286.024 420.162 291.332 421.167Z" fill="#EEEEEE"/>
<path d="M284.584 456.815C289.633 457.771 294.501 454.45 295.457 449.399C296.413 444.347 293.095 439.477 288.047 438.522C282.998 437.566 278.13 440.887 277.174 445.938C276.218 450.99 279.536 455.86 284.584 456.815Z" fill="#EEEEEE"/>
<path d="M277.838 492.463C282.627 493.369 287.245 490.219 288.152 485.427C289.059 480.634 285.912 476.014 281.122 475.108C276.333 474.201 271.714 477.351 270.807 482.144C269.9 486.936 273.048 491.556 277.838 492.463Z" fill="#EEEEEE"/>
<path d="M271.091 528.111C275.621 528.968 279.99 525.988 280.848 521.455C281.706 516.922 278.728 512.552 274.198 511.694C269.667 510.837 265.299 513.817 264.441 518.35C263.583 522.883 266.56 527.253 271.091 528.111Z" fill="#EEEEEE"/>
<path d="M264.343 563.758C268.615 564.567 272.734 561.757 273.543 557.483C274.352 553.208 271.545 549.088 267.273 548.279C263.001 547.471 258.882 550.28 258.073 554.555C257.264 558.829 260.072 562.95 264.343 563.758Z" fill="#EEEEEE"/>
<path d="M257.597 599.406C261.609 600.166 265.479 597.526 266.238 593.511C266.998 589.496 264.361 585.625 260.348 584.866C256.336 584.106 252.466 586.746 251.707 590.761C250.947 594.776 253.584 598.647 257.597 599.406Z" fill="#EEEEEE"/>
<path d="M250.85 635.054C254.605 635.765 258.224 633.296 258.935 629.539C259.646 625.783 257.179 622.162 253.425 621.452C249.671 620.741 246.051 623.21 245.34 626.966C244.629 630.723 247.096 634.344 250.85 635.054Z" fill="#EEEEEE"/>
<path d="M244.103 670.702C247.599 671.364 250.968 669.065 251.63 665.568C252.292 662.071 249.995 658.7 246.5 658.038C243.005 657.377 239.635 659.675 238.973 663.172C238.312 666.67 240.608 670.041 244.103 670.702Z" fill="#EEEEEE"/>
<path d="M237.356 706.351C240.593 706.963 243.713 704.835 244.326 701.596C244.939 698.358 242.812 695.236 239.576 694.624C236.339 694.011 233.219 696.14 232.606 699.378C231.993 702.616 234.12 705.738 237.356 706.351Z" fill="#EEEEEE"/>
<path d="M230.609 741.998C233.587 742.562 236.458 740.604 237.021 737.625C237.585 734.646 235.629 731.774 232.651 731.21C229.674 730.647 226.803 732.605 226.239 735.584C225.676 738.563 227.632 741.435 230.609 741.998Z" fill="#EEEEEE"/>
<path d="M407.863 0.103503C416.278 1.69604 424.391 -3.83805 425.984 -12.2572C427.578 -20.6764 422.048 -28.7925 413.634 -30.385C405.22 -31.9776 397.107 -26.4435 395.513 -18.0243C393.92 -9.60512 399.449 -1.48903 407.863 0.103503Z" fill="#EEEEEE"/>
<path d="M401.117 35.7519C409.272 37.2954 417.135 31.9317 418.679 23.7717C420.224 15.6117 414.865 7.74551 406.709 6.202C398.554 4.65849 390.691 10.0222 389.146 18.1822C387.602 26.3422 392.961 34.2084 401.117 35.7519Z" fill="#EEEEEE"/>
<path d="M394.37 71.3997C402.267 72.8942 409.881 67.7006 411.376 59.7995C412.872 51.8984 407.682 44.2817 399.786 42.7872C391.889 41.2926 384.276 46.4862 382.78 54.3873C381.285 62.2884 386.474 69.9051 394.37 71.3997Z" fill="#EEEEEE"/>
<path d="M387.623 107.048C395.261 108.493 402.624 103.47 404.071 95.828C405.517 88.186 400.498 80.8192 392.861 79.3737C385.223 77.9282 377.859 82.9514 376.413 90.5933C374.967 98.2352 379.985 105.602 387.623 107.048Z" fill="#EEEEEE"/>
<path d="M380.876 142.696C388.255 144.092 395.37 139.239 396.767 131.856C398.164 124.473 393.315 117.356 385.937 115.959C378.558 114.563 371.443 119.416 370.046 126.799C368.649 134.182 373.498 141.299 380.876 142.696Z" fill="#EEEEEE"/>
<path d="M374.129 178.344C381.249 179.691 388.114 175.009 389.462 167.885C390.811 160.761 386.132 153.893 379.012 152.546C371.892 151.198 365.028 155.881 363.679 163.005C362.331 170.129 367.01 176.996 374.129 178.344Z" fill="#EEEEEE"/>
<path d="M367.382 213.991C374.243 215.29 380.858 210.777 382.157 203.913C383.457 197.048 378.948 190.43 372.087 189.132C365.227 187.833 358.612 192.346 357.313 199.21C356.013 206.075 360.522 212.693 367.382 213.991Z" fill="#EEEEEE"/>
<path d="M360.635 249.64C367.237 250.889 373.603 246.547 374.853 239.941C376.103 233.336 371.765 226.968 365.163 225.718C358.561 224.469 352.195 228.811 350.945 235.416C349.695 242.022 354.033 248.39 360.635 249.64Z" fill="#EEEEEE"/>
<path d="M353.888 285.287C360.231 286.488 366.347 282.316 367.548 275.969C368.749 269.623 364.581 263.505 358.238 262.304C351.895 261.104 345.779 265.275 344.578 271.622C343.377 277.969 347.545 284.087 353.888 285.287Z" fill="#EEEEEE"/>
<path d="M347.141 320.935C353.226 322.087 359.092 318.085 360.244 311.998C361.396 305.91 357.398 300.041 351.314 298.89C345.23 297.738 339.363 301.74 338.211 307.828C337.059 313.915 341.057 319.784 347.141 320.935Z" fill="#EEEEEE"/>
<path d="M340.395 356.583C346.22 357.685 351.837 353.854 352.94 348.026C354.043 342.197 350.215 336.578 344.39 335.476C338.565 334.373 332.948 338.204 331.845 344.033C330.742 349.862 334.57 355.48 340.395 356.583Z" fill="#EEEEEE"/>
<path d="M333.648 392.232C339.214 393.285 344.581 389.624 345.636 384.054C346.69 378.485 343.032 373.115 337.465 372.062C331.899 371.008 326.532 374.669 325.478 380.239C324.423 385.809 328.081 391.178 333.648 392.232Z" fill="#EEEEEE"/>
<path d="M326.901 427.879C332.208 428.883 337.326 425.393 338.331 420.082C339.336 414.772 335.848 409.652 330.541 408.648C325.233 407.643 320.116 411.134 319.111 416.445C318.106 421.755 321.593 426.874 326.901 427.879Z" fill="#EEEEEE"/>
<path d="M320.154 463.528C325.203 464.483 330.07 461.163 331.027 456.111C331.983 451.059 328.665 446.19 323.616 445.234C318.567 444.279 313.7 447.599 312.743 452.651C311.787 457.702 315.105 462.572 320.154 463.528Z" fill="#EEEEEE"/>
<path d="M313.407 499.175C318.197 500.081 322.815 496.931 323.722 492.138C324.629 487.346 321.481 482.726 316.692 481.82C311.902 480.913 307.284 484.063 306.377 488.856C305.47 493.648 308.617 498.268 313.407 499.175Z" fill="#EEEEEE"/>
<path d="M306.66 534.823C311.191 535.68 315.559 532.7 316.417 528.167C317.275 523.634 314.298 519.264 309.767 518.406C305.236 517.549 300.868 520.528 300.01 525.062C299.152 529.595 302.129 533.965 306.66 534.823Z" fill="#EEEEEE"/>
<path d="M299.913 570.471C304.185 571.279 308.304 568.47 309.113 564.195C309.922 559.921 307.114 555.8 302.842 554.992C298.57 554.183 294.452 556.993 293.643 561.267C292.834 565.542 295.641 569.662 299.913 570.471Z" fill="#EEEEEE"/>
<path d="M293.166 606.119C297.179 606.878 301.048 604.239 301.808 600.224C302.568 596.208 299.931 592.338 295.918 591.578C291.905 590.819 288.036 593.458 287.276 597.473C286.516 601.488 289.153 605.359 293.166 606.119Z" fill="#EEEEEE"/>
<path d="M286.42 641.767C290.174 642.477 293.794 640.008 294.505 636.252C295.215 632.496 292.748 628.875 288.994 628.164C285.24 627.453 281.62 629.923 280.91 633.679C280.199 637.435 282.666 641.056 286.42 641.767Z" fill="#EEEEEE"/>
<path d="M279.673 677.415C283.168 678.076 286.538 675.778 287.2 672.28C287.862 668.783 285.565 665.412 282.07 664.75C278.575 664.089 275.205 666.388 274.543 669.885C273.881 673.382 276.178 676.753 279.673 677.415Z" fill="#EEEEEE"/>
<path d="M272.926 713.063C276.162 713.675 279.283 711.547 279.895 708.309C280.508 705.07 278.382 701.949 275.145 701.336C271.909 700.724 268.788 702.852 268.175 706.09C267.563 709.329 269.689 712.45 272.926 713.063Z" fill="#EEEEEE"/>
<path d="M266.179 748.711C269.156 749.274 272.027 747.316 272.591 744.337C273.154 741.358 271.198 738.486 268.221 737.923C265.243 737.359 262.373 739.317 261.809 742.296C261.245 745.275 263.201 748.147 266.179 748.711Z" fill="#EEEEEE"/>
<path d="M443.433 6.81641C451.847 8.40895 459.96 2.87487 461.554 -5.5443C463.147 -13.9635 457.618 -22.0796 449.203 -23.6721C440.789 -25.2647 432.676 -19.7306 431.083 -11.3114C429.489 -2.89223 435.019 5.22387 443.433 6.81641Z" fill="#EEEEEE"/>
<path d="M436.686 42.4648C444.841 44.0083 452.704 38.6446 454.249 30.4846C455.793 22.3246 450.434 14.4584 442.279 12.9149C434.123 11.3714 426.26 16.7351 424.716 24.8951C423.171 33.0551 428.531 40.9213 436.686 42.4648Z" fill="#EEEEEE"/>
<path d="M429.939 78.1125C437.835 79.6071 445.449 74.4135 446.944 66.5124C448.44 58.6113 443.251 50.9946 435.354 49.5C427.458 48.0055 419.844 53.1991 418.348 61.1002C416.853 69.0013 422.042 76.618 429.939 78.1125Z" fill="#EEEEEE"/>
<path d="M423.192 113.76C430.83 115.206 438.194 110.183 439.64 102.541C441.087 94.8989 436.068 87.5321 428.43 86.0866C420.793 84.6411 413.429 89.6642 411.982 97.3062C410.536 104.948 415.555 112.315 423.192 113.76Z" fill="#EEEEEE"/>
<path d="M416.446 149.409C423.825 150.805 430.939 145.952 432.336 138.569C433.734 131.186 428.885 124.069 421.506 122.672C414.127 121.276 407.013 126.129 405.615 133.512C404.218 140.895 409.067 148.012 416.446 149.409Z" fill="#EEEEEE"/>
<path d="M409.699 185.057C416.819 186.404 423.683 181.721 425.032 174.598C426.38 167.474 421.701 160.606 414.581 159.259C407.462 157.911 400.597 162.594 399.249 169.718C397.9 176.842 402.579 183.709 409.699 185.057Z" fill="#EEEEEE"/>
<path d="M402.952 220.704C409.813 222.003 416.428 217.49 417.727 210.626C419.026 203.761 414.518 197.143 407.657 195.845C400.796 194.546 394.181 199.059 392.882 205.923C391.583 212.788 396.091 219.406 402.952 220.704Z" fill="#EEEEEE"/>
<path d="M396.205 256.353C402.807 257.602 409.172 253.26 410.423 246.654C411.673 240.048 407.334 233.68 400.732 232.431C394.13 231.181 387.765 235.524 386.515 242.129C385.264 248.735 389.603 255.103 396.205 256.353Z" fill="#EEEEEE"/>
<path d="M389.458 292C395.801 293.201 401.917 289.029 403.118 282.682C404.319 276.336 400.151 270.217 393.808 269.017C387.465 267.816 381.349 271.988 380.148 278.335C378.947 284.681 383.115 290.8 389.458 292Z" fill="#EEEEEE"/>
<path d="M382.711 327.648C388.795 328.8 394.661 324.798 395.813 318.71C396.966 312.623 392.967 306.754 386.883 305.603C380.799 304.451 374.933 308.453 373.78 314.54C372.628 320.628 376.626 326.497 382.711 327.648Z" fill="#EEEEEE"/>
<path d="M375.964 363.296C381.789 364.398 387.406 360.567 388.509 354.738C389.612 348.91 385.784 343.291 379.959 342.189C374.134 341.086 368.517 344.917 367.414 350.746C366.311 356.575 370.139 362.193 375.964 363.296Z" fill="#EEEEEE"/>
<path d="M369.217 398.945C374.784 399.998 380.151 396.337 381.205 390.767C382.259 385.198 378.601 379.828 373.035 378.775C367.468 377.721 362.101 381.382 361.047 386.952C359.993 392.522 363.651 397.891 369.217 398.945Z" fill="#EEEEEE"/>
<path d="M362.47 434.592C367.778 435.596 372.895 432.106 373.9 426.795C374.905 421.485 371.417 416.365 366.11 415.361C360.803 414.356 355.685 417.847 354.68 423.158C353.675 428.468 357.163 433.587 362.47 434.592Z" fill="#EEEEEE"/>
<path d="M355.724 470.241C360.772 471.196 365.64 467.876 366.596 462.824C367.552 457.772 364.235 452.903 359.186 451.947C354.137 450.991 349.269 454.312 348.313 459.364C347.357 464.415 350.675 469.285 355.724 470.241Z" fill="#EEEEEE"/>
<path d="M348.976 505.888C353.766 506.795 358.384 503.644 359.291 498.852C360.198 494.059 357.051 489.44 352.261 488.533C347.471 487.626 342.853 490.777 341.946 495.569C341.039 500.362 344.186 504.981 348.976 505.888Z" fill="#EEEEEE"/>
<path d="M342.23 541.536C346.76 542.393 351.129 539.414 351.987 534.88C352.845 530.347 349.867 525.977 345.337 525.12C340.806 524.262 336.438 527.242 335.58 531.775C334.722 536.308 337.699 540.678 342.23 541.536Z" fill="#EEEEEE"/>
<path d="M335.483 577.184C339.754 577.992 343.873 575.183 344.682 570.908C345.491 566.634 342.684 562.513 338.412 561.705C334.14 560.896 330.021 563.706 329.212 567.98C328.403 572.255 331.211 576.375 335.483 577.184Z" fill="#EEEEEE"/>
<path d="M328.736 612.832C332.749 613.591 336.618 610.952 337.378 606.937C338.138 602.921 335.501 599.051 331.488 598.291C327.475 597.532 323.606 600.171 322.846 604.186C322.086 608.201 324.723 612.072 328.736 612.832Z" fill="#EEEEEE"/>
<path d="M321.989 648.48C325.743 649.19 329.363 646.721 330.074 642.965C330.785 639.209 328.318 635.587 324.564 634.877C320.809 634.166 317.19 636.635 316.479 640.392C315.768 644.148 318.235 647.769 321.989 648.48Z" fill="#EEEEEE"/>
<path d="M315.242 684.128C318.737 684.789 322.107 682.49 322.769 678.993C323.431 675.496 321.134 672.125 317.639 671.463C314.144 670.802 310.774 673.101 310.112 676.598C309.45 680.095 311.747 683.466 315.242 684.128Z" fill="#EEEEEE"/>
<path d="M308.495 719.776C311.731 720.389 314.852 718.26 315.465 715.022C316.078 711.783 313.951 708.662 310.715 708.049C307.478 707.437 304.358 709.565 303.745 712.803C303.132 716.042 305.259 719.163 308.495 719.776Z" fill="#EEEEEE"/>
<path d="M301.748 755.424C304.725 755.987 307.596 754.029 308.16 751.05C308.724 748.071 306.767 745.199 303.79 744.636C300.813 744.072 297.942 746.03 297.378 749.009C296.814 751.988 298.771 754.86 301.748 755.424Z" fill="#EEEEEE"/>
<path d="M479.002 13.5293C487.416 15.1218 495.529 9.58775 497.123 1.16858C498.716 -7.2506 493.187 -15.3667 484.773 -16.9592C476.358 -18.5518 468.245 -13.0177 466.652 -4.59851C465.058 3.82066 470.588 11.9368 479.002 13.5293Z" fill="#EEEEEE"/>
<path d="M472.255 49.1777C480.411 50.7212 488.274 45.3575 489.818 37.1975C491.363 29.0375 486.003 21.1713 477.848 19.6278C469.693 18.0843 461.83 23.448 460.285 31.608C458.741 39.768 464.1 47.6342 472.255 49.1777Z" fill="#EEEEEE"/>
<path d="M465.508 84.8254C473.405 86.3199 481.018 81.1264 482.514 73.2253C484.009 65.3242 478.82 57.7075 470.923 56.2129C463.027 54.7184 455.413 59.912 453.918 67.8131C452.422 75.7142 457.612 83.3309 465.508 84.8254Z" fill="#EEEEEE"/>
<path d="M458.762 120.473C466.399 121.919 473.763 116.896 475.21 109.254C476.656 101.612 471.637 94.245 463.999 92.7995C456.362 91.354 448.998 96.3771 447.552 104.019C446.105 111.661 451.124 119.028 458.762 120.473Z" fill="#EEEEEE"/>
<path d="M452.015 156.121C459.394 157.518 466.508 152.665 467.906 145.282C469.303 137.899 464.454 130.782 457.075 129.385C449.696 127.989 442.582 132.842 441.185 140.225C439.787 147.608 444.636 154.725 452.015 156.121Z" fill="#EEEEEE"/>
<path d="M445.268 191.769C452.388 193.117 459.253 188.434 460.601 181.31C461.949 174.187 457.271 167.319 450.151 165.972C443.031 164.624 436.166 169.307 434.818 176.431C433.47 183.555 438.148 190.422 445.268 191.769Z" fill="#EEEEEE"/>
<path d="M438.521 227.417C445.382 228.715 451.997 224.203 453.296 217.338C454.595 210.474 450.087 203.856 443.226 202.558C436.365 201.259 429.75 205.771 428.451 212.636C427.152 219.501 431.66 226.118 438.521 227.417Z" fill="#EEEEEE"/>
<path d="M431.774 263.066C438.376 264.315 444.741 259.973 445.992 253.367C447.242 246.761 442.904 240.393 436.302 239.144C429.7 237.894 423.334 242.236 422.084 248.842C420.834 255.448 425.172 261.816 431.774 263.066Z" fill="#EEEEEE"/>
<path d="M425.027 298.713C431.37 299.914 437.486 295.742 438.687 289.395C439.888 283.049 435.72 276.93 429.377 275.73C423.034 274.529 416.918 278.701 415.717 285.048C414.516 291.394 418.684 297.513 425.027 298.713Z" fill="#EEEEEE"/>
<path d="M418.28 334.361C424.364 335.513 430.231 331.511 431.383 325.423C432.535 319.336 428.537 313.467 422.453 312.316C416.368 311.164 410.502 315.166 409.35 321.253C408.198 327.341 412.196 333.21 418.28 334.361Z" fill="#EEEEEE"/>
<path d="M411.534 370.009C417.359 371.111 422.975 367.28 424.078 361.451C425.182 355.623 421.354 350.004 415.528 348.902C409.703 347.799 404.087 351.63 402.984 357.459C401.88 363.287 405.708 368.906 411.534 370.009Z" fill="#EEEEEE"/>
<path d="M404.786 405.657C410.353 406.711 415.72 403.05 416.774 397.48C417.828 391.91 414.17 386.541 408.604 385.488C403.037 384.434 397.67 388.095 396.616 393.665C395.562 399.235 399.22 404.604 404.786 405.657Z" fill="#EEEEEE"/>
<path d="M398.04 441.305C403.347 442.309 408.464 438.819 409.469 433.508C410.475 428.198 406.987 423.078 401.679 422.074C396.372 421.069 391.255 424.56 390.249 429.87C389.244 435.181 392.732 440.3 398.04 441.305Z" fill="#EEEEEE"/>
<path d="M391.293 476.953C396.342 477.909 401.209 474.588 402.166 469.537C403.122 464.485 399.804 459.615 394.755 458.66C389.707 457.704 384.839 461.025 383.883 466.076C382.927 471.128 386.244 475.998 391.293 476.953Z" fill="#EEEEEE"/>
<path d="M384.546 512.601C389.335 513.507 393.953 510.357 394.86 505.565C395.767 500.772 392.62 496.152 387.83 495.246C383.041 494.339 378.422 497.489 377.515 502.282C376.608 507.074 379.756 511.694 384.546 512.601Z" fill="#EEEEEE"/>
<path d="M377.799 548.249C382.33 549.106 386.698 546.126 387.556 541.593C388.414 537.06 385.437 532.69 380.906 531.832C376.375 530.975 372.007 533.955 371.149 538.488C370.291 543.021 373.268 547.391 377.799 548.249Z" fill="#EEEEEE"/>
<path d="M371.051 583.896C375.323 584.705 379.442 581.895 380.251 577.621C381.06 573.347 378.253 569.226 373.981 568.418C369.709 567.609 365.59 570.419 364.781 574.693C363.972 578.968 366.78 583.088 371.051 583.896Z" fill="#EEEEEE"/>
<path d="M364.305 619.544C368.318 620.304 372.187 617.665 372.947 613.649C373.707 609.634 371.07 605.764 367.057 605.004C363.044 604.245 359.175 606.884 358.415 610.899C357.655 614.914 360.292 618.785 364.305 619.544Z" fill="#EEEEEE"/>
<path d="M357.558 655.193C361.313 655.903 364.932 653.434 365.643 649.678C366.354 645.921 363.887 642.3 360.133 641.59C356.379 640.879 352.759 643.348 352.048 647.105C351.337 650.861 353.804 654.482 357.558 655.193Z" fill="#EEEEEE"/>
<path d="M350.811 690.841C354.307 691.502 357.677 689.203 358.338 685.706C359 682.209 356.703 678.838 353.208 678.176C349.713 677.515 346.343 679.814 345.681 683.311C345.02 686.808 347.316 690.179 350.811 690.841Z" fill="#EEEEEE"/>
<path d="M344.064 726.489C347.301 727.101 350.421 724.973 351.034 721.734C351.647 718.496 349.52 715.374 346.284 714.762C343.047 714.149 339.927 716.278 339.314 719.516C338.701 722.755 340.828 725.876 344.064 726.489Z" fill="#EEEEEE"/>
<path d="M337.317 762.137C340.295 762.7 343.165 760.742 343.729 757.763C344.293 754.784 342.337 751.912 339.359 751.348C336.382 750.785 333.511 752.743 332.947 755.722C332.384 758.701 334.34 761.573 337.317 762.137Z" fill="#EEEEEE"/>
<path d="M514.572 20.2417C522.986 21.8342 531.099 16.3001 532.692 7.88097C534.286 -0.538205 528.756 -8.6543 520.342 -10.2468C511.928 -11.8394 503.815 -6.30528 502.221 2.11389C500.628 10.5331 506.157 18.6492 514.572 20.2417Z" fill="#EEEEEE"/>
<path d="M507.825 55.8901C515.98 57.4336 523.843 52.0699 525.387 43.9099C526.932 35.7499 521.573 27.8837 513.417 26.3402C505.262 24.7967 497.399 30.1604 495.854 38.3204C494.31 46.4803 499.669 54.3466 507.825 55.8901Z" fill="#EEEEEE"/>
<path d="M501.078 91.5378C508.975 93.0323 516.589 87.8388 518.084 79.9377C519.58 72.0366 514.39 64.4199 506.494 62.9253C498.597 61.4308 490.984 66.6244 489.488 74.5255C487.993 82.4266 493.182 90.0433 501.078 91.5378Z" fill="#EEEEEE"/>
<path d="M494.331 127.186C501.969 128.631 509.332 123.608 510.779 115.966C512.225 108.324 507.206 100.957 499.569 99.5119C491.931 98.0664 484.567 103.09 483.121 110.731C481.675 118.373 486.694 125.74 494.331 127.186Z" fill="#EEEEEE"/>
<path d="M487.584 162.834C494.963 164.23 502.078 159.377 503.475 151.994C504.872 144.611 500.023 137.494 492.645 136.098C485.266 134.701 478.151 139.554 476.754 146.937C475.357 154.32 480.206 161.437 487.584 162.834Z" fill="#EEEEEE"/>
<path d="M480.837 198.482C487.957 199.829 494.822 195.147 496.17 188.023C497.518 180.899 492.839 174.032 485.72 172.684C478.6 171.337 471.735 176.019 470.387 183.143C469.039 190.267 473.717 197.134 480.837 198.482Z" fill="#EEEEEE"/>
<path d="M474.09 234.129C480.951 235.428 487.566 230.916 488.865 224.051C490.164 217.186 485.656 210.569 478.795 209.27C471.934 207.972 465.319 212.484 464.02 219.349C462.721 226.213 467.229 232.831 474.09 234.129Z" fill="#EEEEEE"/>
<path d="M467.343 269.778C473.945 271.028 480.311 266.685 481.561 260.08C482.811 253.474 478.473 247.106 471.871 245.856C465.269 244.607 458.903 248.949 457.653 255.555C456.403 262.16 460.741 268.528 467.343 269.778Z" fill="#EEEEEE"/>
<path d="M460.597 305.425C466.94 306.626 473.055 302.454 474.256 296.108C475.458 289.761 471.289 283.643 464.946 282.442C458.603 281.242 452.488 285.414 451.286 291.76C450.085 298.107 454.254 304.225 460.597 305.425Z" fill="#EEEEEE"/>
<path d="M453.849 341.074C459.934 342.225 465.8 338.224 466.952 332.136C468.104 326.048 464.106 320.179 458.022 319.028C451.938 317.876 446.071 321.878 444.919 327.966C443.767 334.053 447.765 339.922 453.849 341.074Z" fill="#EEEEEE"/>
<path d="M447.103 376.721C452.928 377.824 458.545 373.992 459.648 368.164C460.751 362.335 456.923 356.716 451.098 355.614C445.273 354.511 439.656 358.343 438.553 364.171C437.45 370 441.278 375.619 447.103 376.721Z" fill="#EEEEEE"/>
<path d="M440.356 412.37C445.922 413.423 451.289 409.762 452.344 404.193C453.398 398.623 449.74 393.254 444.173 392.2C438.607 391.147 433.24 394.808 432.186 400.377C431.131 405.947 434.789 411.316 440.356 412.37Z" fill="#EEEEEE"/>
<path d="M433.609 448.017C438.916 449.022 444.034 445.531 445.039 440.22C446.044 434.91 442.556 429.791 437.249 428.786C431.941 427.782 426.824 431.272 425.819 436.583C424.814 441.893 428.301 447.013 433.609 448.017Z" fill="#EEEEEE"/>
<path d="M426.862 483.666C431.911 484.621 436.778 481.301 437.734 476.249C438.691 471.198 435.373 466.328 430.324 465.372C425.275 464.417 420.408 467.737 419.451 472.789C418.495 477.84 421.813 482.71 426.862 483.666Z" fill="#EEEEEE"/>
<path d="M420.115 519.313C424.905 520.22 429.523 517.07 430.43 512.277C431.337 507.485 428.189 502.865 423.4 501.958C418.61 501.052 413.992 504.202 413.085 508.994C412.178 513.787 415.325 518.407 420.115 519.313Z" fill="#EEEEEE"/>
<path d="M413.368 554.961C417.899 555.819 422.267 552.839 423.125 548.306C423.983 543.772 421.006 539.402 416.475 538.545C411.944 537.687 407.576 540.667 406.718 545.2C405.86 549.734 408.837 554.104 413.368 554.961Z" fill="#EEEEEE"/>
<path d="M406.621 590.609C410.893 591.417 415.012 588.608 415.821 584.333C416.63 580.059 413.822 575.938 409.55 575.13C405.278 574.321 401.16 577.131 400.351 581.405C399.542 585.68 402.349 589.8 406.621 590.609Z" fill="#EEEEEE"/>
<path d="M399.875 626.257C403.888 627.016 407.757 624.377 408.517 620.362C409.277 616.347 406.64 612.476 402.627 611.716C398.614 610.957 394.745 613.596 393.985 617.611C393.225 621.627 395.862 625.497 399.875 626.257Z" fill="#EEEEEE"/>
<path d="M393.128 661.905C396.882 662.615 400.502 660.146 401.213 656.39C401.923 652.634 399.456 649.013 395.702 648.302C391.948 647.592 388.328 650.061 387.618 653.817C386.907 657.573 389.374 661.194 393.128 661.905Z" fill="#EEEEEE"/>
<path d="M386.381 697.553C389.876 698.214 393.246 695.916 393.908 692.419C394.57 688.921 392.273 685.55 388.778 684.889C385.283 684.227 381.913 686.526 381.251 690.023C380.589 693.52 382.886 696.891 386.381 697.553Z" fill="#EEEEEE"/>
<path d="M379.634 733.201C382.87 733.814 385.991 731.685 386.603 728.447C387.216 725.209 385.09 722.087 381.853 721.474C378.617 720.862 375.496 722.99 374.883 726.229C374.271 729.467 376.397 732.589 379.634 733.201Z" fill="#EEEEEE"/>
<path d="M372.887 768.849C375.864 769.413 378.735 767.454 379.299 764.475C379.862 761.496 377.906 758.624 374.929 758.061C371.951 757.497 369.081 759.456 368.517 762.435C367.953 765.414 369.909 768.285 372.887 768.849Z" fill="#EEEEEE"/>
<path d="M550.141 26.9546C558.555 28.5471 566.668 23.013 568.262 14.5939C569.855 6.17469 564.326 -1.9414 555.911 -3.53394C547.497 -5.12647 539.384 0.407606 537.791 8.82678C536.197 17.2459 541.727 25.362 550.141 26.9546Z" fill="#EEEEEE"/>
<path d="M543.394 62.603C551.549 64.1465 559.412 58.7828 560.957 50.6228C562.501 42.4628 557.142 34.5966 548.987 33.0531C540.831 31.5096 532.968 36.8733 531.424 45.0333C529.879 53.1932 535.239 61.0595 543.394 62.603Z" fill="#EEEEEE"/>
<path d="M536.648 98.2507C544.544 99.7452 552.158 94.5517 553.654 86.6506C555.149 78.7495 549.96 71.1328 542.063 69.6382C534.167 68.1437 526.553 73.3372 525.057 81.2384C523.562 89.1395 528.751 96.7562 536.648 98.2507Z" fill="#EEEEEE"/>
<path d="M529.9 133.899C537.538 135.344 544.902 130.321 546.348 122.679C547.794 115.037 542.776 107.67 535.138 106.225C527.501 104.779 520.137 109.802 518.69 117.444C517.244 125.086 522.263 132.453 529.9 133.899Z" fill="#EEEEEE"/>
<path d="M523.154 169.547C530.533 170.943 537.647 166.09 539.044 158.707C540.442 151.324 535.593 144.207 528.214 142.81C520.835 141.414 513.721 146.267 512.323 153.65C510.926 161.033 515.775 168.15 523.154 169.547Z" fill="#EEEEEE"/>
<path d="M516.406 205.195C523.526 206.542 530.391 201.86 531.739 194.736C533.087 187.612 528.409 180.744 521.289 179.397C514.169 178.049 507.304 182.732 505.956 189.856C504.608 196.98 509.287 203.847 516.406 205.195Z" fill="#EEEEEE"/>
<path d="M509.659 240.842C516.52 242.141 523.135 237.628 524.434 230.764C525.734 223.899 521.225 217.281 514.364 215.983C507.504 214.684 500.889 219.197 499.589 226.061C498.29 232.926 502.799 239.544 509.659 240.842Z" fill="#EEEEEE"/>
<path d="M502.912 276.491C509.514 277.74 515.88 273.398 517.13 266.792C518.38 260.187 514.042 253.819 507.44 252.569C500.838 251.32 494.472 255.662 493.222 262.268C491.972 268.873 496.31 275.241 502.912 276.491Z" fill="#EEEEEE"/>
<path d="M496.165 312.138C502.508 313.339 508.624 309.167 509.825 302.82C511.026 296.474 506.858 290.356 500.515 289.155C494.172 287.955 488.057 292.126 486.855 298.473C485.654 304.82 489.822 310.938 496.165 312.138Z" fill="#EEEEEE"/>
<path d="M489.418 347.786C495.502 348.938 501.369 344.936 502.521 338.849C503.673 332.761 499.675 326.892 493.591 325.741C487.506 324.589 481.64 328.591 480.488 334.679C479.336 340.766 483.334 346.635 489.418 347.786Z" fill="#EEEEEE"/>
<path d="M482.672 383.434C488.497 384.536 494.114 380.705 495.217 374.877C496.32 369.048 492.492 363.429 486.667 362.327C480.842 361.224 475.225 365.056 474.122 370.884C473.019 376.713 476.847 382.331 482.672 383.434Z" fill="#EEEEEE"/>
<path d="M475.925 419.083C481.492 420.136 486.859 416.475 487.913 410.905C488.967 405.336 485.309 399.967 479.743 398.913C474.176 397.859 468.809 401.521 467.755 407.09C466.701 412.66 470.359 418.029 475.925 419.083Z" fill="#EEEEEE"/>
<path d="M469.178 454.73C474.486 455.734 479.603 452.244 480.608 446.933C481.613 441.623 478.125 436.504 472.818 435.499C467.511 434.494 462.393 437.985 461.388 443.296C460.383 448.606 463.871 453.725 469.178 454.73Z" fill="#EEEEEE"/>
<path d="M462.431 490.379C467.48 491.334 472.348 488.014 473.304 482.962C474.26 477.91 470.942 473.041 465.893 472.085C460.845 471.13 455.977 474.45 455.021 479.502C454.065 484.553 457.382 489.423 462.431 490.379Z" fill="#EEEEEE"/>
<path d="M455.684 526.026C460.474 526.932 465.092 523.782 465.999 518.99C466.906 514.197 463.759 509.577 458.969 508.671C454.179 507.764 449.561 510.914 448.654 515.707C447.747 520.499 450.895 525.119 455.684 526.026Z" fill="#EEEEEE"/>
<path d="M448.937 561.674C453.468 562.532 457.836 559.552 458.694 555.019C459.552 550.485 456.575 546.115 452.044 545.258C447.514 544.4 443.145 547.38 442.287 551.913C441.429 556.446 444.407 560.817 448.937 561.674Z" fill="#EEEEEE"/>
<path d="M442.19 597.322C446.462 598.13 450.581 595.321 451.39 591.046C452.199 586.772 449.392 582.651 445.12 581.843C440.848 581.034 436.729 583.844 435.92 588.118C435.111 592.393 437.918 596.513 442.19 597.322Z" fill="#EEEEEE"/>
<path d="M435.444 632.97C439.457 633.729 443.326 631.09 444.086 627.075C444.846 623.059 442.209 619.189 438.196 618.429C434.183 617.67 430.314 620.309 429.554 624.324C428.794 628.339 431.431 632.21 435.444 632.97Z" fill="#EEEEEE"/>
<path d="M428.697 668.618C432.451 669.328 436.071 666.859 436.782 663.103C437.493 659.347 435.026 655.726 431.272 655.015C427.517 654.305 423.898 656.774 423.187 660.53C422.476 664.286 424.943 667.907 428.697 668.618Z" fill="#EEEEEE"/>
<path d="M421.95 704.266C425.445 704.927 428.815 702.629 429.477 699.131C430.139 695.634 427.842 692.263 424.347 691.602C420.852 690.94 417.482 693.239 416.82 696.736C416.158 700.233 418.455 703.604 421.95 704.266Z" fill="#EEEEEE"/>
<path d="M415.203 739.914C418.439 740.527 421.56 738.398 422.173 735.16C422.786 731.921 420.659 728.8 417.422 728.187C414.186 727.575 411.066 729.703 410.453 732.942C409.84 736.18 411.967 739.301 415.203 739.914Z" fill="#EEEEEE"/>
<path d="M408.456 775.562C411.433 776.125 414.304 774.167 414.868 771.188C415.432 768.209 413.475 765.337 410.498 764.774C407.521 764.21 404.65 766.168 404.086 769.147C403.522 772.127 405.479 774.998 408.456 775.562Z" fill="#EEEEEE"/>
<path d="M592.457 -1.98067C601.13 -0.339171 609.493 -6.04343 611.135 -14.7215C612.778 -23.3995 607.078 -31.7652 598.405 -33.4067C589.732 -35.0482 581.37 -29.344 579.727 -20.6659C578.085 -11.9878 583.784 -3.62218 592.457 -1.98067Z" fill="#EEEEEE"/>
<path d="M585.71 33.667C594.124 35.2595 602.237 29.7254 603.831 21.3063C605.424 12.8871 599.895 4.77099 591.481 3.17846C583.066 1.58592 574.953 7.12001 573.36 15.5392C571.766 23.9584 577.296 32.0745 585.71 33.667Z" fill="#EEEEEE"/>
<path d="M578.963 69.3154C587.119 70.8589 594.982 65.4952 596.526 57.3352C598.07 49.1752 592.711 41.309 584.556 39.7655C576.401 38.222 568.538 43.5857 566.993 51.7457C565.449 59.9056 570.808 67.7719 578.963 69.3154Z" fill="#EEEEEE"/>
<path d="M572.217 104.964C580.114 106.458 587.727 101.265 589.223 93.3634C590.718 85.4623 585.529 77.8457 577.632 76.3511C569.736 74.8566 562.122 80.0501 560.627 87.9512C559.131 95.8523 564.321 103.469 572.217 104.964Z" fill="#EEEEEE"/>
<path d="M565.47 140.611C573.107 142.057 580.471 137.033 581.917 129.391C583.364 121.749 578.345 114.383 570.707 112.937C563.07 111.492 555.706 116.515 554.26 124.157C552.813 131.799 557.832 139.166 565.47 140.611Z" fill="#EEEEEE"/>
<path d="M558.723 176.259C566.102 177.656 573.216 172.803 574.614 165.42C576.011 158.037 571.162 150.919 563.783 149.523C556.405 148.126 549.29 152.979 547.893 160.362C546.495 167.745 551.344 174.863 558.723 176.259Z" fill="#EEEEEE"/>
<path d="M551.976 211.907C559.095 213.255 565.96 208.572 567.309 201.448C568.657 194.324 563.978 187.457 556.858 186.109C549.739 184.762 542.874 189.444 541.525 196.568C540.177 203.692 544.856 210.56 551.976 211.907Z" fill="#EEEEEE"/>
<path d="M545.229 247.555C552.09 248.853 558.705 244.341 560.004 237.476C561.304 230.611 556.795 223.994 549.934 222.695C543.073 221.397 536.458 225.909 535.159 232.774C533.86 239.639 538.368 246.256 545.229 247.555Z" fill="#EEEEEE"/>
<path d="M538.482 283.203C545.084 284.453 551.45 280.111 552.7 273.505C553.95 266.899 549.612 260.531 543.01 259.282C536.408 258.032 530.042 262.374 528.792 268.98C527.542 275.586 531.88 281.954 538.482 283.203Z" fill="#EEEEEE"/>
<path d="M531.735 318.851C538.078 320.051 544.194 315.879 545.395 309.533C546.596 303.186 542.428 297.068 536.085 295.868C529.742 294.667 523.626 298.839 522.425 305.185C521.224 311.532 525.392 317.65 531.735 318.851Z" fill="#EEEEEE"/>
<path d="M524.988 354.499C531.072 355.65 536.939 351.649 538.091 345.561C539.243 339.473 535.245 333.605 529.161 332.453C523.076 331.302 517.21 335.303 516.058 341.391C514.906 347.479 518.904 353.347 524.988 354.499Z" fill="#EEEEEE"/>
<path d="M518.242 390.146C524.067 391.249 529.684 387.418 530.787 381.589C531.89 375.76 528.062 370.142 522.237 369.039C516.412 367.937 510.795 371.768 509.692 377.597C508.589 383.425 512.417 389.044 518.242 390.146Z" fill="#EEEEEE"/>
<path d="M511.495 425.795C517.061 426.849 522.428 423.187 523.482 417.618C524.536 412.048 520.878 406.679 515.312 405.625C509.745 404.572 504.378 408.233 503.324 413.803C502.27 419.372 505.928 424.741 511.495 425.795Z" fill="#EEEEEE"/>
<path d="M504.748 461.442C510.055 462.447 515.172 458.956 516.177 453.646C517.183 448.335 513.695 443.216 508.387 442.211C503.08 441.207 497.963 444.698 496.957 450.008C495.952 455.319 499.44 460.438 504.748 461.442Z" fill="#EEEEEE"/>
<path d="M498.001 497.091C503.05 498.047 507.917 494.726 508.874 489.674C509.83 484.623 506.512 479.753 501.463 478.798C496.415 477.842 491.547 481.163 490.591 486.214C489.635 491.266 492.952 496.136 498.001 497.091Z" fill="#EEEEEE"/>
<path d="M491.254 532.738C496.044 533.645 500.662 530.495 501.569 525.702C502.476 520.91 499.328 516.29 494.539 515.384C489.749 514.477 485.131 517.627 484.224 522.42C483.317 527.212 486.464 531.832 491.254 532.738Z" fill="#EEEEEE"/>
<path d="M484.507 568.386C489.037 569.244 493.406 566.264 494.264 561.731C495.122 557.198 492.144 552.828 487.614 551.97C483.083 551.113 478.715 554.092 477.857 558.626C476.999 563.159 479.976 567.529 484.507 568.386Z" fill="#EEEEEE"/>
<path d="M477.759 604.034C482.031 604.843 486.15 602.033 486.959 597.759C487.768 593.484 484.961 589.364 480.689 588.555C476.417 587.747 472.298 590.556 471.489 594.831C470.68 599.105 473.488 603.226 477.759 604.034Z" fill="#EEEEEE"/>
<path d="M471.013 639.682C475.025 640.442 478.895 637.802 479.655 633.787C480.414 629.772 477.777 625.901 473.765 625.142C469.752 624.382 465.882 627.022 465.123 631.037C464.363 635.052 467 638.923 471.013 639.682Z" fill="#EEEEEE"/>
<path d="M464.266 675.33C468.021 676.041 471.64 673.572 472.351 669.815C473.062 666.059 470.595 662.438 466.841 661.727C463.087 661.017 459.467 663.486 458.756 667.242C458.045 670.999 460.512 674.62 464.266 675.33Z" fill="#EEEEEE"/>
<path d="M457.519 710.978C461.015 711.64 464.385 709.341 465.046 705.844C465.708 702.347 463.412 698.975 459.916 698.314C456.421 697.652 453.051 699.951 452.389 703.448C451.728 706.945 454.024 710.317 457.519 710.978Z" fill="#EEEEEE"/>
<path d="M450.772 746.626C454.009 747.239 457.129 745.11 457.742 741.872C458.355 738.634 456.228 735.512 452.992 734.9C449.755 734.287 446.635 736.416 446.022 739.654C445.409 742.892 447.536 746.014 450.772 746.626Z" fill="#EEEEEE"/>
<path d="M444.025 782.274C447.003 782.838 449.874 780.88 450.437 777.901C451.001 774.921 449.045 772.05 446.067 771.486C443.09 770.923 440.219 772.881 439.655 775.86C439.092 778.839 441.048 781.711 444.025 782.274Z" fill="#EEEEEE"/>
<path d="M628.026 4.73222C636.699 6.37373 645.062 0.669477 646.704 -8.00858C648.347 -16.6866 642.647 -25.0523 633.974 -26.6938C625.301 -28.3353 616.939 -22.6311 615.296 -13.953C613.654 -5.27495 619.353 3.09071 628.026 4.73222Z" fill="#EEEEEE"/>
<path d="M621.279 40.3799C629.693 41.9724 637.806 36.4383 639.4 28.0192C640.993 19.6 635.464 11.4839 627.049 9.89135C618.635 8.29882 610.522 13.8329 608.929 22.2521C607.335 30.6713 612.865 38.7873 621.279 40.3799Z" fill="#EEEEEE"/>
<path d="M614.532 76.0283C622.687 77.5718 630.551 72.2081 632.095 64.0481C633.639 55.8881 628.28 48.0219 620.125 46.4784C611.97 44.9349 604.106 50.2986 602.562 58.4585C601.018 66.6185 606.377 74.4848 614.532 76.0283Z" fill="#EEEEEE"/>
<path d="M607.786 111.676C615.683 113.171 623.296 107.977 624.792 100.076C626.287 92.1747 621.098 84.5581 613.201 83.0635C605.305 81.569 597.691 86.7625 596.196 94.6636C594.7 102.565 599.889 110.181 607.786 111.676Z" fill="#EEEEEE"/>
<path d="M601.039 147.324C608.676 148.769 616.04 143.746 617.486 136.104C618.933 128.462 613.914 121.096 606.276 119.65C598.639 118.205 591.275 123.228 589.828 130.87C588.382 138.512 593.401 145.878 601.039 147.324Z" fill="#EEEEEE"/>
<path d="M594.292 182.972C601.671 184.369 608.785 179.516 610.183 172.133C611.58 164.75 606.731 157.632 599.352 156.236C591.973 154.839 584.859 159.692 583.462 167.075C582.064 174.458 586.913 181.576 594.292 182.972Z" fill="#EEEEEE"/>
<path d="M587.544 218.62C594.664 219.968 601.529 215.285 602.877 208.161C604.226 201.037 599.547 194.17 592.427 192.822C585.307 191.475 578.443 196.157 577.094 203.281C575.746 210.405 580.425 217.273 587.544 218.62Z" fill="#EEEEEE"/>
<path d="M580.798 254.268C587.658 255.566 594.273 251.054 595.573 244.189C596.872 237.324 592.363 230.707 585.503 229.408C578.642 228.11 572.027 232.622 570.728 239.487C569.428 246.351 573.937 252.969 580.798 254.268Z" fill="#EEEEEE"/>
<path d="M574.051 289.916C580.653 291.165 587.018 286.823 588.269 280.217C589.519 273.611 585.181 267.243 578.579 265.994C571.977 264.744 565.611 269.087 564.361 275.692C563.11 282.298 567.449 288.666 574.051 289.916Z" fill="#EEEEEE"/>
<path d="M567.304 325.564C573.647 326.764 579.762 322.592 580.964 316.246C582.165 309.899 577.996 303.781 571.653 302.58C565.31 301.38 559.195 305.552 557.994 311.898C556.792 318.245 560.961 324.363 567.304 325.564Z" fill="#EEEEEE"/>
<path d="M560.557 361.212C566.641 362.363 572.507 358.362 573.66 352.274C574.812 346.186 570.814 340.318 564.729 339.166C558.645 338.015 552.779 342.016 551.627 348.104C550.474 354.192 554.473 360.06 560.557 361.212Z" fill="#EEEEEE"/>
<path d="M553.81 396.859C559.636 397.962 565.252 394.13 566.355 388.302C567.458 382.473 563.63 376.855 557.805 375.752C551.98 374.65 546.364 378.481 545.26 384.309C544.157 390.138 547.985 395.757 553.81 396.859Z" fill="#EEEEEE"/>
<path d="M547.063 432.508C552.63 433.562 557.997 429.9 559.051 424.331C560.105 418.761 556.447 413.392 550.881 412.338C545.314 411.285 539.947 414.946 538.893 420.516C537.839 426.085 541.497 431.454 547.063 432.508Z" fill="#EEEEEE"/>
<path d="M540.316 468.155C545.624 469.16 550.741 465.669 551.746 460.359C552.751 455.048 549.264 449.929 543.956 448.924C538.649 447.92 533.531 451.41 532.526 456.721C531.521 462.031 535.009 467.151 540.316 468.155Z" fill="#EEEEEE"/>
<path d="M533.569 503.804C538.618 504.76 543.486 501.439 544.442 496.387C545.398 491.336 542.08 486.466 537.032 485.51C531.983 484.555 527.115 487.875 526.159 492.927C525.203 497.979 528.521 502.848 533.569 503.804Z" fill="#EEEEEE"/>
<path d="M526.822 539.451C531.612 540.358 536.23 537.208 537.137 532.415C538.044 527.623 534.897 523.003 530.107 522.096C525.317 521.19 520.699 524.34 519.792 529.133C518.885 533.925 522.033 538.545 526.822 539.451Z" fill="#EEEEEE"/>
<path d="M520.076 575.099C524.607 575.957 528.975 572.977 529.833 568.444C530.691 563.911 527.714 559.54 523.183 558.683C518.652 557.826 514.284 560.805 513.426 565.339C512.568 569.872 515.545 574.242 520.076 575.099Z" fill="#EEEEEE"/>
<path d="M513.328 610.747C517.6 611.556 521.719 608.746 522.528 604.472C523.337 600.197 520.53 596.077 516.258 595.268C511.986 594.46 507.867 597.269 507.058 601.544C506.249 605.818 509.056 609.939 513.328 610.747Z" fill="#EEEEEE"/>
<path d="M506.581 646.395C510.594 647.154 514.463 644.515 515.223 640.5C515.983 636.485 513.346 632.614 509.333 631.855C505.32 631.095 501.451 633.734 500.691 637.75C499.931 641.765 502.569 645.635 506.581 646.395Z" fill="#EEEEEE"/>
<path d="M499.835 682.043C503.589 682.754 507.209 680.285 507.92 676.528C508.631 672.772 506.164 669.151 502.41 668.44C498.656 667.73 495.036 670.199 494.325 673.955C493.614 677.712 496.081 681.333 499.835 682.043Z" fill="#EEEEEE"/>
<path d="M493.088 717.691C496.583 718.353 499.953 716.054 500.615 712.557C501.277 709.06 498.98 705.688 495.485 705.027C491.99 704.365 488.62 706.664 487.958 710.161C487.296 713.658 489.593 717.03 493.088 717.691Z" fill="#EEEEEE"/>
<path d="M486.341 753.339C489.578 753.952 492.698 751.823 493.311 748.585C493.924 745.347 491.797 742.225 488.561 741.613C485.324 741 482.204 743.129 481.591 746.367C480.978 749.605 483.105 752.727 486.341 753.339Z" fill="#EEEEEE"/>
<path d="M479.594 788.987C482.572 789.551 485.442 787.593 486.006 784.613C486.57 781.634 484.613 778.763 481.636 778.199C478.659 777.636 475.788 779.594 475.224 782.573C474.66 785.552 476.617 788.424 479.594 788.987Z" fill="#EEEEEE"/>
<path d="M663.595 11.4446C672.269 13.0861 680.631 7.38188 682.273 -1.29618C683.916 -9.97424 678.216 -18.3399 669.543 -19.9814C660.87 -21.6229 652.508 -15.9187 650.865 -7.2406C649.223 1.43745 654.922 9.80312 663.595 11.4446Z" fill="#EEEEEE"/>
<path d="M656.848 47.0923C665.263 48.6848 673.376 43.1507 674.969 34.7316C676.563 26.3124 671.033 18.1963 662.619 16.6038C654.204 15.0112 646.092 20.5453 644.498 28.9645C642.905 37.3837 648.434 45.4997 656.848 47.0923Z" fill="#EEEEEE"/>
<path d="M650.101 82.7407C658.257 84.2842 666.12 78.9205 667.664 70.7605C669.209 62.6005 663.849 54.7343 655.694 53.1908C647.539 51.6473 639.676 57.011 638.131 65.171C636.587 73.331 641.946 81.1972 650.101 82.7407Z" fill="#EEEEEE"/>
<path d="M643.354 118.388C651.251 119.883 658.865 114.689 660.36 106.788C661.855 98.8872 656.666 91.2705 648.77 89.7759C640.873 88.2814 633.259 93.4749 631.764 101.376C630.269 109.277 635.458 116.894 643.354 118.388Z" fill="#EEEEEE"/>
<path d="M636.608 154.036C644.245 155.482 651.609 150.459 653.056 142.817C654.502 135.175 649.483 127.808 641.846 126.362C634.208 124.917 626.844 129.94 625.398 137.582C623.951 145.224 628.97 152.591 636.608 154.036Z" fill="#EEEEEE"/>
<path d="M629.861 189.684C637.24 191.081 644.355 186.228 645.752 178.845C647.149 171.462 642.3 164.345 634.922 162.948C627.543 161.552 620.428 166.405 619.031 173.788C617.634 181.171 622.482 188.288 629.861 189.684Z" fill="#EEEEEE"/>
<path d="M623.114 225.332C630.234 226.68 637.099 221.997 638.447 214.873C639.795 207.75 635.117 200.882 627.997 199.535C620.877 198.187 614.012 202.87 612.664 209.994C611.316 217.118 615.995 223.985 623.114 225.332Z" fill="#EEEEEE"/>
<path d="M616.367 260.98C623.228 262.278 629.843 257.766 631.142 250.901C632.442 244.037 627.933 237.419 621.072 236.121C614.212 234.822 607.597 239.334 606.297 246.199C604.998 253.064 609.507 259.681 616.367 260.98Z" fill="#EEEEEE"/>
<path d="M609.62 296.629C616.222 297.878 622.588 293.536 623.838 286.93C625.088 280.324 620.75 273.956 614.148 272.707C607.546 271.457 601.18 275.799 599.93 282.405C598.68 289.011 603.018 295.379 609.62 296.629Z" fill="#EEEEEE"/>
<path d="M602.873 332.276C609.216 333.477 615.332 329.305 616.533 322.958C617.734 316.611 613.566 310.493 607.223 309.293C600.88 308.092 594.765 312.264 593.563 318.611C592.362 324.957 596.53 331.076 602.873 332.276Z" fill="#EEEEEE"/>
<path d="M596.126 367.924C602.21 369.076 608.077 365.074 609.229 358.986C610.381 352.899 606.383 347.03 600.299 345.878C594.214 344.727 588.348 348.729 587.196 354.816C586.044 360.904 590.042 366.773 596.126 367.924Z" fill="#EEEEEE"/>
<path d="M589.38 403.572C595.205 404.674 600.821 400.843 601.925 395.014C603.028 389.186 599.2 383.567 593.375 382.465C587.549 381.362 581.933 385.193 580.83 391.022C579.727 396.85 583.555 402.469 589.38 403.572Z" fill="#EEEEEE"/>
<path d="M582.633 439.22C588.199 440.274 593.566 436.613 594.62 431.043C595.675 425.473 592.017 420.104 586.45 419.051C580.884 417.997 575.517 421.658 574.462 427.228C573.408 432.798 577.066 438.167 582.633 439.22Z" fill="#EEEEEE"/>
<path d="M575.886 474.868C581.193 475.872 586.31 472.382 587.316 467.071C588.321 461.761 584.833 456.641 579.525 455.637C574.218 454.632 569.101 458.123 568.096 463.433C567.091 468.744 570.578 473.863 575.886 474.868Z" fill="#EEEEEE"/>
<path d="M569.139 510.516C574.187 511.471 579.055 508.151 580.011 503.099C580.967 498.048 577.65 493.178 572.601 492.222C567.552 491.267 562.684 494.587 561.728 499.639C560.772 504.691 564.09 509.56 569.139 510.516Z" fill="#EEEEEE"/>
<path d="M562.392 546.164C567.181 547.07 571.799 543.92 572.706 539.128C573.614 534.335 570.466 529.715 565.676 528.809C560.887 527.902 556.269 531.052 555.362 535.845C554.455 540.637 557.602 545.257 562.392 546.164Z" fill="#EEEEEE"/>
<path d="M555.645 581.812C560.176 582.669 564.544 579.689 565.402 575.156C566.26 570.623 563.283 566.253 558.752 565.395C554.222 564.538 549.853 567.518 548.995 572.051C548.137 576.584 551.115 580.954 555.645 581.812Z" fill="#EEEEEE"/>
<path d="M548.898 617.459C553.17 618.268 557.289 615.458 558.098 611.184C558.907 606.91 556.099 602.789 551.827 601.981C547.555 601.172 543.436 603.982 542.627 608.256C541.818 612.53 544.626 616.651 548.898 617.459Z" fill="#EEEEEE"/>
<path d="M542.151 653.107C546.164 653.867 550.033 651.228 550.793 647.212C551.553 643.197 548.916 639.327 544.903 638.567C540.89 637.808 537.021 640.447 536.261 644.462C535.501 648.477 538.138 652.348 542.151 653.107Z" fill="#EEEEEE"/>
<path d="M535.405 688.756C539.159 689.466 542.778 686.997 543.489 683.241C544.2 679.484 541.733 675.863 537.979 675.153C534.225 674.442 530.605 676.911 529.894 680.668C529.183 684.424 531.65 688.045 535.405 688.756Z" fill="#EEEEEE"/>
<path d="M528.658 724.403C532.153 725.065 535.523 722.766 536.185 719.269C536.846 715.772 534.55 712.401 531.055 711.739C527.559 711.078 524.19 713.376 523.528 716.874C522.866 720.371 525.163 723.742 528.658 724.403Z" fill="#EEEEEE"/>
<path d="M521.911 760.052C525.147 760.664 528.267 758.536 528.88 755.297C529.493 752.059 527.366 748.937 524.13 748.325C520.894 747.712 517.773 749.841 517.16 753.079C516.547 756.318 518.674 759.439 521.911 760.052Z" fill="#EEEEEE"/>
<path d="M515.164 795.7C518.141 796.263 521.012 794.305 521.576 791.326C522.139 788.347 520.183 785.475 517.205 784.911C514.228 784.348 511.357 786.306 510.794 789.285C510.23 792.264 512.186 795.136 515.164 795.7Z" fill="#EEEEEE"/>
<path d="M699.165 18.1575C707.838 19.799 716.2 14.0948 717.843 5.41672C719.485 -3.26133 713.786 -11.627 705.113 -13.2685C696.44 -14.91 688.077 -9.20577 686.435 -0.527718C684.792 8.15034 690.492 16.516 699.165 18.1575Z" fill="#EEEEEE"/>
<path d="M692.418 53.8052C700.832 55.3977 708.945 49.8636 710.539 41.4445C712.132 33.0253 706.603 24.9092 698.188 23.3167C689.774 21.7241 681.661 27.2582 680.067 35.6774C678.474 44.0965 684.003 52.2126 692.418 53.8052Z" fill="#EEEEEE"/>
<path d="M685.671 89.4536C693.826 90.9971 701.689 85.6334 703.234 77.4734C704.778 69.3134 699.419 61.4472 691.264 59.9037C683.108 58.3602 675.245 63.7239 673.701 71.8839C672.156 80.0438 677.515 87.9101 685.671 89.4536Z" fill="#EEEEEE"/>
<path d="M678.924 125.101C686.82 126.596 694.434 121.402 695.929 113.501C697.425 105.6 692.235 97.9833 684.339 96.4888C676.442 94.9943 668.829 100.188 667.333 108.089C665.838 115.99 671.027 123.607 678.924 125.101Z" fill="#EEEEEE"/>
<path d="M672.177 160.749C679.815 162.195 687.179 157.172 688.625 149.53C690.071 141.888 685.052 134.521 677.415 133.075C669.777 131.63 662.413 136.653 660.967 144.295C659.521 151.937 664.54 159.304 672.177 160.749Z" fill="#EEEEEE"/>
<path d="M665.431 196.397C672.809 197.794 679.924 192.941 681.321 185.558C682.719 178.175 677.87 171.058 670.491 169.661C663.112 168.264 655.998 173.117 654.6 180.501C653.203 187.884 658.052 195.001 665.431 196.397Z" fill="#EEEEEE"/>
<path d="M658.684 232.045C665.803 233.393 672.668 228.71 674.016 221.586C675.365 214.462 670.686 207.595 663.566 206.248C656.447 204.9 649.582 209.583 648.233 216.707C646.885 223.83 651.564 230.698 658.684 232.045Z" fill="#EEEEEE"/>
<path d="M651.937 267.693C658.797 268.991 665.412 264.479 666.712 257.614C668.011 250.75 663.502 244.132 656.642 242.834C649.781 241.535 643.166 246.047 641.867 252.912C640.568 259.777 645.076 266.394 651.937 267.693Z" fill="#EEEEEE"/>
<path d="M645.19 303.341C651.792 304.591 658.157 300.249 659.407 293.643C660.657 287.037 656.319 280.669 649.717 279.42C643.115 278.17 636.75 282.512 635.499 289.118C634.249 295.724 638.588 302.092 645.19 303.341Z" fill="#EEEEEE"/>
<path d="M638.443 338.989C644.786 340.189 650.901 336.018 652.103 329.671C653.304 323.324 649.136 317.206 642.793 316.006C636.45 314.805 630.334 318.977 629.133 325.324C627.931 331.67 632.1 337.788 638.443 338.989Z" fill="#EEEEEE"/>
<path d="M631.696 374.637C637.78 375.789 643.646 371.787 644.798 365.699C645.951 359.612 641.952 353.743 635.868 352.591C629.784 351.44 623.918 355.441 622.765 361.529C621.613 367.617 625.611 373.486 631.696 374.637Z" fill="#EEEEEE"/>
<path d="M624.949 410.285C630.774 411.387 636.391 407.556 637.494 401.727C638.597 395.899 634.769 390.28 628.944 389.177C623.119 388.075 617.502 391.906 616.399 397.735C615.296 403.563 619.124 409.182 624.949 410.285Z" fill="#EEEEEE"/>
<path d="M618.202 445.933C623.769 446.987 629.136 443.326 630.19 437.756C631.244 432.186 627.586 426.817 622.019 425.764C616.453 424.71 611.086 428.371 610.032 433.941C608.978 439.51 612.636 444.88 618.202 445.933Z" fill="#EEEEEE"/>
<path d="M611.455 481.581C616.763 482.585 621.88 479.094 622.885 473.784C623.89 468.473 620.402 463.354 615.095 462.35C609.787 461.345 604.67 464.836 603.665 470.146C602.66 475.457 606.148 480.576 611.455 481.581Z" fill="#EEEEEE"/>
<path d="M604.708 517.229C609.757 518.184 614.625 514.864 615.581 509.812C616.537 504.761 613.219 499.891 608.17 498.935C603.122 497.98 598.254 501.3 597.298 506.352C596.342 511.403 599.659 516.273 604.708 517.229Z" fill="#EEEEEE"/>
<path d="M597.961 552.877C602.751 553.783 607.369 550.633 608.276 545.841C609.183 541.048 606.035 536.428 601.246 535.522C596.456 534.615 591.838 537.765 590.931 542.558C590.024 547.35 593.171 551.97 597.961 552.877Z" fill="#EEEEEE"/>
<path d="M591.214 588.525C595.745 589.382 600.113 586.402 600.971 581.869C601.829 577.336 598.852 572.966 594.321 572.108C589.79 571.251 585.422 574.231 584.564 578.764C583.706 583.297 586.683 587.667 591.214 588.525Z" fill="#EEEEEE"/>
<path d="M584.467 624.172C588.739 624.981 592.858 622.171 593.667 617.897C594.476 613.622 591.669 609.502 587.397 608.693C583.125 607.885 579.006 610.695 578.197 614.969C577.388 619.243 580.196 623.364 584.467 624.172Z" fill="#EEEEEE"/>
<path d="M577.721 659.82C581.733 660.58 585.603 657.941 586.362 653.925C587.122 649.91 584.485 646.039 580.473 645.28C576.46 644.52 572.591 647.16 571.831 651.175C571.071 655.19 573.708 659.061 577.721 659.82Z" fill="#EEEEEE"/>
<path d="M570.974 695.468C574.728 696.179 578.348 693.71 579.059 689.954C579.77 686.197 577.303 682.576 573.548 681.866C569.794 681.155 566.175 683.624 565.464 687.38C564.753 691.137 567.22 694.758 570.974 695.468Z" fill="#EEEEEE"/>
<path d="M564.227 731.116C567.722 731.778 571.092 729.479 571.754 725.982C572.416 722.485 570.119 719.114 566.624 718.452C563.129 717.791 559.759 720.089 559.097 723.586C558.435 727.084 560.732 730.455 564.227 731.116Z" fill="#EEEEEE"/>
<path d="M557.48 766.765C560.716 767.377 563.837 765.248 564.45 762.01C565.063 758.772 562.936 755.65 559.699 755.038C556.463 754.425 553.343 756.554 552.73 759.792C552.117 763.03 554.244 766.152 557.48 766.765Z" fill="#EEEEEE"/>
<path d="M550.733 802.412C553.71 802.976 556.581 801.018 557.145 798.039C557.709 795.06 555.752 792.188 552.775 791.624C549.797 791.061 546.927 793.019 546.363 795.998C545.799 798.977 547.756 801.849 550.733 802.412Z" fill="#EEEEEE"/>
<path d="M714.494 131.814C722.391 133.308 730.004 128.115 731.5 120.214C732.995 112.312 727.806 104.696 719.909 103.201C712.013 101.707 704.399 106.9 702.904 114.801C701.408 122.702 706.597 130.319 714.494 131.814Z" fill="#EEEEEE"/>
<path d="M707.746 167.462C715.384 168.907 722.748 163.884 724.194 156.242C725.641 148.6 720.622 141.233 712.984 139.788C705.347 138.342 697.983 143.365 696.536 151.007C695.09 158.649 700.109 166.016 707.746 167.462Z" fill="#EEEEEE"/>
<path d="M701 203.11C708.379 204.506 715.493 199.653 716.891 192.27C718.288 184.887 713.439 177.77 706.06 176.373C698.681 174.977 691.567 179.83 690.17 187.213C688.772 194.596 693.621 201.713 701 203.11Z" fill="#EEEEEE"/>
<path d="M694.252 238.758C701.372 240.105 708.237 235.423 709.585 228.299C710.934 221.175 706.255 214.307 699.135 212.96C692.015 211.612 685.151 216.295 683.802 223.419C682.454 230.543 687.133 237.41 694.252 238.758Z" fill="#EEEEEE"/>
<path d="M687.505 274.405C694.366 275.704 700.981 271.191 702.28 264.327C703.58 257.462 699.071 250.844 692.21 249.546C685.35 248.247 678.735 252.76 677.436 259.624C676.136 266.489 680.645 273.107 687.505 274.405Z" fill="#EEEEEE"/>
<path d="M680.759 310.054C687.361 311.303 693.727 306.961 694.977 300.355C696.227 293.75 691.889 287.382 685.286 286.132C678.684 284.883 672.319 289.225 671.069 295.83C669.819 302.436 674.157 308.804 680.759 310.054Z" fill="#EEEEEE"/>
<path d="M674.011 345.701C680.354 346.902 686.47 342.73 687.671 336.383C688.873 330.037 684.704 323.919 678.361 322.718C672.018 321.518 665.903 325.689 664.702 332.036C663.5 338.383 667.669 344.501 674.011 345.701Z" fill="#EEEEEE"/>
<path d="M667.264 381.349C673.349 382.501 679.215 378.499 680.367 372.412C681.519 366.324 677.521 360.455 671.437 359.304C665.353 358.152 659.486 362.154 658.334 368.242C657.182 374.329 661.18 380.198 667.264 381.349Z" fill="#EEEEEE"/>
<path d="M660.518 416.997C666.344 418.099 671.96 414.268 673.063 408.44C674.167 402.611 670.338 396.992 664.513 395.89C658.688 394.787 653.072 398.619 651.968 404.447C650.865 410.276 654.693 415.894 660.518 416.997Z" fill="#EEEEEE"/>
<path d="M653.771 452.646C659.338 453.699 664.705 450.038 665.759 444.468C666.813 438.899 663.155 433.529 657.589 432.476C652.022 431.422 646.655 435.083 645.601 440.653C644.547 446.223 648.205 451.592 653.771 452.646Z" fill="#EEEEEE"/>
<path d="M647.024 488.293C652.332 489.298 657.449 485.807 658.454 480.496C659.459 475.186 655.972 470.067 650.664 469.062C645.357 468.057 640.239 471.548 639.234 476.859C638.229 482.169 641.717 487.289 647.024 488.293Z" fill="#EEEEEE"/>
<path d="M640.277 523.941C645.326 524.897 650.194 521.576 651.15 516.525C652.106 511.473 648.788 506.603 643.74 505.648C638.691 504.692 633.823 508.013 632.867 513.064C631.911 518.116 635.229 522.986 640.277 523.941Z" fill="#EEEEEE"/>
<path d="M633.53 559.589C638.32 560.495 642.938 557.345 643.845 552.553C644.752 547.76 641.605 543.14 636.815 542.234C632.025 541.327 627.407 544.477 626.5 549.27C625.593 554.062 628.741 558.682 633.53 559.589Z" fill="#EEEEEE"/>
<path d="M626.783 595.237C631.314 596.094 635.682 593.114 636.54 588.581C637.398 584.048 634.421 579.678 629.89 578.82C625.36 577.963 620.991 580.943 620.133 585.476C619.275 590.009 622.253 594.379 626.783 595.237Z" fill="#EEEEEE"/>
<path d="M620.036 630.885C624.308 631.693 628.427 628.884 629.236 624.609C630.045 620.335 627.238 616.214 622.966 615.406C618.694 614.597 614.575 617.407 613.766 621.681C612.957 625.956 615.764 630.076 620.036 630.885Z" fill="#EEEEEE"/>
<path d="M613.29 666.533C617.303 667.292 621.172 664.653 621.932 660.638C622.692 656.622 620.055 652.752 616.042 651.992C612.029 651.233 608.16 653.872 607.4 657.887C606.64 661.903 609.277 665.773 613.29 666.533Z" fill="#EEEEEE"/>
<path d="M606.543 702.181C610.297 702.892 613.917 700.422 614.628 696.666C615.339 692.91 612.872 689.289 609.118 688.578C605.364 687.868 601.744 690.337 601.033 694.093C600.322 697.849 602.789 701.47 606.543 702.181Z" fill="#EEEEEE"/>
<path d="M599.796 737.829C603.291 738.49 606.661 736.192 607.323 732.694C607.985 729.197 605.688 725.826 602.193 725.165C598.698 724.503 595.328 726.802 594.666 730.299C594.004 733.796 596.301 737.167 599.796 737.829Z" fill="#EEEEEE"/>
<path d="M593.049 773.477C596.286 774.089 599.406 771.961 600.019 768.723C600.632 765.484 598.505 762.363 595.269 761.75C592.032 761.138 588.912 763.266 588.299 766.504C587.686 769.743 589.813 772.864 593.049 773.477Z" fill="#EEEEEE"/>
<path d="M586.302 809.125C589.28 809.688 592.15 807.73 592.714 804.751C593.278 801.772 591.322 798.9 588.344 798.337C585.367 797.773 582.496 799.731 581.932 802.71C581.368 805.69 583.325 808.561 586.302 809.125Z" fill="#EEEEEE"/>
<path d="M709.581 352.414C715.924 353.615 722.04 349.443 723.241 343.096C724.442 336.75 720.274 330.632 713.931 329.431C707.588 328.231 701.472 332.402 700.271 338.749C699.07 345.095 703.238 351.214 709.581 352.414Z" fill="#EEEEEE"/>
<path d="M702.834 388.062C708.918 389.214 714.785 385.212 715.937 379.125C717.089 373.037 713.091 367.168 707.007 366.017C700.923 364.865 695.056 368.867 693.904 374.954C692.752 381.042 696.75 386.911 702.834 388.062Z" fill="#EEEEEE"/>
<path d="M696.088 423.71C701.913 424.812 707.53 420.981 708.633 415.153C709.736 409.324 705.908 403.705 700.083 402.603C694.257 401.5 688.641 405.331 687.538 411.16C686.435 416.989 690.263 422.607 696.088 423.71Z" fill="#EEEEEE"/>
<path d="M689.341 459.359C694.907 460.412 700.274 456.751 701.328 451.181C702.383 445.612 698.725 440.242 693.158 439.189C687.592 438.135 682.225 441.796 681.17 447.366C680.116 452.936 683.774 458.305 689.341 459.359Z" fill="#EEEEEE"/>
<path d="M682.594 495.006C687.901 496.01 693.019 492.52 694.024 487.209C695.029 481.899 691.541 476.779 686.234 475.775C680.926 474.77 675.809 478.261 674.804 483.572C673.799 488.882 677.286 494.001 682.594 495.006Z" fill="#EEEEEE"/>
<path d="M675.847 530.655C680.895 531.61 685.763 528.29 686.719 523.238C687.675 518.186 684.358 513.317 679.309 512.361C674.26 511.405 669.392 514.726 668.436 519.778C667.48 524.829 670.798 529.699 675.847 530.655Z" fill="#EEEEEE"/>
<path d="M669.1 566.302C673.889 567.209 678.508 564.058 679.415 559.266C680.322 554.473 677.174 549.854 672.384 548.947C667.595 548.041 662.977 551.191 662.07 555.983C661.163 560.776 664.31 565.395 669.1 566.302Z" fill="#EEEEEE"/>
<path d="M662.353 601.95C666.883 602.807 671.252 599.827 672.11 595.294C672.968 590.761 669.991 586.391 665.46 585.533C660.929 584.676 656.561 587.655 655.703 592.189C654.845 596.722 657.822 601.092 662.353 601.95Z" fill="#EEEEEE"/>
<path d="M655.606 637.598C659.878 638.406 663.997 635.597 664.806 631.322C665.615 627.048 662.807 622.927 658.535 622.119C654.263 621.31 650.144 624.12 649.335 628.394C648.526 632.669 651.334 636.789 655.606 637.598Z" fill="#EEEEEE"/>
<path d="M648.859 673.246C652.872 674.005 656.741 671.366 657.501 667.351C658.261 663.335 655.624 659.465 651.611 658.705C647.598 657.946 643.729 660.585 642.969 664.6C642.209 668.615 644.846 672.486 648.859 673.246Z" fill="#EEEEEE"/>
<path d="M642.113 708.894C645.867 709.604 649.486 707.135 650.197 703.379C650.908 699.623 648.441 696.001 644.687 695.291C640.933 694.58 637.313 697.05 636.602 700.806C635.891 704.562 638.358 708.183 642.113 708.894Z" fill="#EEEEEE"/>
<path d="M635.366 744.542C638.861 745.203 642.231 742.904 642.893 739.407C643.555 735.91 641.258 732.539 637.763 731.877C634.267 731.216 630.898 733.515 630.236 737.012C629.574 740.509 631.871 743.88 635.366 744.542Z" fill="#EEEEEE"/>
<path d="M628.618 780.19C631.855 780.802 634.975 778.674 635.588 775.436C636.201 772.197 634.074 769.076 630.838 768.463C627.602 767.851 624.481 769.979 623.868 773.217C623.255 776.456 625.382 779.577 628.618 780.19Z" fill="#EEEEEE"/>
<path d="M621.872 815.838C624.849 816.401 627.72 814.443 628.284 811.464C628.847 808.485 626.891 805.613 623.913 805.05C620.936 804.486 618.065 806.444 617.502 809.423C616.938 812.402 618.894 815.274 621.872 815.838Z" fill="#EEEEEE"/>
<path d="M704.669 573.015C709.459 573.921 714.077 570.771 714.984 565.979C715.891 561.186 712.743 556.566 707.954 555.66C703.164 554.753 698.546 557.904 697.639 562.696C696.732 567.488 699.879 572.108 704.669 573.015Z" fill="#EEEEEE"/>
<path d="M697.922 608.663C702.453 609.52 706.821 606.541 707.679 602.007C708.537 597.474 705.56 593.104 701.029 592.246C696.499 591.389 692.13 594.369 691.272 598.902C690.414 603.435 693.391 607.805 697.922 608.663Z" fill="#EEEEEE"/>
<path d="M691.175 644.31C695.447 645.119 699.566 642.309 700.375 638.035C701.184 633.761 698.376 629.64 694.105 628.832C689.833 628.023 685.714 630.833 684.905 635.107C684.096 639.381 686.903 643.502 691.175 644.31Z" fill="#EEEEEE"/>
<path d="M684.429 679.958C688.442 680.718 692.311 678.079 693.071 674.063C693.831 670.048 691.194 666.178 687.181 665.418C683.168 664.659 679.299 667.298 678.539 671.313C677.779 675.328 680.416 679.199 684.429 679.958Z" fill="#EEEEEE"/>
<path d="M677.682 715.607C681.436 716.317 685.056 713.848 685.767 710.092C686.478 706.335 684.011 702.714 680.256 702.004C676.502 701.293 672.883 703.762 672.172 707.519C671.461 711.275 673.928 714.896 677.682 715.607Z" fill="#EEEEEE"/>
<path d="M670.935 751.255C674.43 751.916 677.8 749.617 678.462 746.12C679.124 742.623 676.827 739.252 673.332 738.59C669.837 737.929 666.467 740.228 665.805 743.725C665.143 747.222 667.44 750.593 670.935 751.255Z" fill="#EEEEEE"/>
<path d="M664.187 786.903C667.424 787.515 670.544 785.387 671.157 782.148C671.77 778.91 669.643 775.789 666.407 775.176C663.171 774.563 660.05 776.692 659.437 779.93C658.824 783.169 660.951 786.29 664.187 786.903Z" fill="#EEEEEE"/>
<path d="M657.441 822.551C660.418 823.114 663.289 821.156 663.853 818.177C664.417 815.198 662.46 812.326 659.483 811.763C656.505 811.199 653.635 813.157 653.071 816.136C652.507 819.115 654.464 821.987 657.441 822.551Z" fill="#EEEEEE"/>
<path d="M706.504 757.967C710 758.629 713.369 756.33 714.031 752.833C714.693 749.336 712.396 745.964 708.901 745.303C705.406 744.641 702.036 746.94 701.374 750.437C700.712 753.934 703.009 757.306 706.504 757.967Z" fill="#EEEEEE"/>
<path d="M699.757 793.615C702.994 794.228 706.114 792.099 706.727 788.861C707.34 785.623 705.213 782.501 701.977 781.888C698.74 781.276 695.62 783.404 695.007 786.643C694.394 789.881 696.521 793.003 699.757 793.615Z" fill="#EEEEEE"/>
<path d="M693.01 829.263C695.988 829.827 698.858 827.868 699.422 824.889C699.986 821.91 698.029 819.038 695.052 818.475C692.075 817.911 689.204 819.87 688.64 822.849C688.076 825.828 690.033 828.699 693.01 829.263Z" fill="#EEEEEE"/>
</g>
<defs>
<clipPath id="clip0">
<rect width="1404.59" height="878.377" fill="white" transform="translate(163.346 -159) rotate(10.7173)"/>
</clipPath>
</defs>
</svg>
